<?xml version="1.0" encoding="utf-8"?>
<!-- Generator: Adobe Illustrator 26.0.2, SVG Export Plug-In . SVG Version: 6.00 Build 0)  -->
<svg version="1.1" id="Layer_1" xmlns="http://www.w3.org/2000/svg" xmlns:xlink="http://www.w3.org/1999/xlink" x="0px" y="0px"
	 viewBox="0 0 2000 2000" enable-background="new 0 0 2000 2000" xml:space="preserve">
<linearGradient id="SVGID_1_" gradientUnits="userSpaceOnUse" x1="1069.5992" y1="329.3222" x2="1020.6936" y2="1628.0392">
	<stop  offset="0" style="stop-color:#0EFFD4"/>
	<stop  offset="1" style="stop-color:#0076D0"/>
</linearGradient>
<path fill="url(#SVGID_1_)" d="M1622.5,872c-37.2,36.8-74,73.9-111,110.9c-56,56.1-112.7,111.6-167.9,168.6l-1.3-0.1
	c-45.8,47.2-92.9,93.1-139.1,139.8c-30.5,29.8-60.1,60.7-90.9,90.3c-0.1-15.8-0.1-31.6-0.1-47.4c-0.1-38.9,0.1-77.7,0-116.6
	c-0.1-44.6,0.1-89.1,0-133.7c-0.1-36.7,0.1-73.3,0-110c-0.1-50.4,0.1-100.8,0-151.3c0-22.6-0.3-45.2,0.2-67.8l125.4,141.1
	c1.3,64.1,0.2,128.2,0.7,192.3c56.5-56.5,113.1-112.9,169.4-169.5c50.4-50.2,100.7-100.4,150.9-150.9c32.1-31.7,63.6-63.9,95.8-95.4
	c-2-20.4-11.3-40.8-29.8-51.1c-40.3-23.5-80.6-47-121.3-69.9c-62.6-36.7-125.5-72.8-188.4-108.9c-100.1-58.1-200.6-115.9-300.9-174
	c-17.4-9.6-34.8-23.1-55.8-21.4c-16.1-0.4-29.8,8.7-43.2,16.4C812.7,323.3,709.7,382.2,607,442c-63.9,36.6-127.8,73.4-191.4,110.5
	c-39.5,22.2-78.6,45.1-117.8,67.8c-18.6,10.1-30.9,30.6-30.5,51.9c-0.5,31,0.1,62-0.1,93c0.2,51.5-0.5,103.1,0.3,154.6
	c201.9-0.6,403.7,0.2,605.5-0.4c-2.4,98.3-0.2,196.9-0.9,295.3c-42,0.8-84.1-0.7-126.1,0.7c14.7,13.6,27.2,29.8,43.4,41.8
	c45.1,1.2,90.3,0.1,135.5,0.5c0-42.2,0.1-84.5,0-126.7c-0.1-48.4,0.1-96.9,0-145.3c-0.1-23.3-0.1-46.7,0-69.9l124.5,127.9
	c0,0,0,0.1,0,0.1l1,339.4c-100.7-0.3-201.3,0.6-302-0.4c-20.2-13.7-35.4-34.6-53.8-50.9c-39.1-39.1-77.9-78.4-117.4-117.1
	c-14.2,0.2-28.4,0.2-42.5,0.3c0,39.7,0,79.4,0,119.1c0,23.8,0,47.6,0,71.4c-41.9-23-83.5-46.7-125.6-69.3c-0.2-3.4-0.5-10-0.7-13.3
	c0.2-35,0.1-70,0.1-105c-0.1-32.9,0.2-65.8-0.1-98.6c0.1-10.3,0.3-20.6,0.7-30.9c112.5,0.9,225,0.3,337.5,0.3
	c-0.1-14.2-0.1-28.4-0.1-42.5c-159.7-0.3-319.3,0.3-478.9-0.3c-1,24.4-0.5,49-0.5,73.5c-0.1,32.8-0.1,65.7,0,98.5
	c-0.1,35,0,70-0.1,105c0.4,29-0.8,58,0.5,86.9c1,20.7,14.9,38.9,32.9,48.4c27.3,15.3,53.8,32.1,81.7,46.4
	c99.7,59.2,200.6,116.3,301.1,174.4c82.1,47.9,164.6,95.2,246.9,142.7c20.2,12.1,46.4,9.9,65.7-2.9
	c80.6-47.3,162.2-92.7,242.3-140.8c101.3-56.9,201.5-115.9,302.2-173.8c26.9-15.5,54-30.9,80.8-46.6c16.7-9.2,30.4-26.1,31.6-45.6
	c1.9-75.5,0.9-151.2,0.7-226.8c0.9-75.3-0.2-150.7,0.7-226c16.1-27.5,33.9-54,50.4-81.3c47.3-76.3,95.8-151.9,142.1-228.8
	C1770.7,721.7,1697.5,797.7,1622.5,872z M925.2,764.7c0-3.2,0-9.7,0-13c24,24.1,48.2,48.2,72.2,72.2c17.7,17.9,35.6,35.6,53.3,53.4
	c-0.1,32.1,0,64.3,0,96.4c-0.1,8.4-0.1,16.8,0,25.2c-10.3-10.2-20.5-20.4-30.8-30.5c-31.6-31.7-63.3-63.2-94.8-94.9
	C925.2,837.2,925.2,801,925.2,764.7z"/>
	
</svg>
