<?xml version="1.0" encoding="UTF-8"?>
<svg id="Layer_1" data-name="Layer 1" xmlns="http://www.w3.org/2000/svg" viewBox="0 0 693.92 597.47">
  <defs>
    <style>
      .cls-1 {
        fill: #028dd0;
      }

      .cls-2 {
        fill: #028ad0;
      }

      .cls-3 {
        fill: #0289d0;
      }

      .cls-4 {
        fill: #0285cf;
      }

      .cls-5 {
        fill: #0181cf;
      }

      .cls-6 {
        fill: #017fcf;
      }

      .cls-7 {
        fill: #0183cf;
      }

      .cls-8 {
        fill: #017ccf;
      }

      .cls-9 {
        fill: #0076cf;
      }

      .cls-10 {
        fill: #0497d0;
      }

      .cls-11 {
        fill: #0393d0;
      }

      .cls-12 {
        fill: #038fd0;
      }

      .cls-13 {
        fill: #0397d0;
      }

      .cls-14 {
        fill: #0391d0;
      }

      .cls-15 {
        fill: #0395d0;
      }

      .cls-16 {
        fill: #67eae2;
      }

      .cls-17 {
        fill: #0079cf;
      }

      .cls-18 {
        fill: #fefefe;
      }

      .cls-19 {
        fill: #fdfdfd;
      }

      .cls-20 {
        fill: #66e9e3;
      }

      .cls-21 {
        fill: #96d2eb;
      }

      .cls-22 {
        fill: #6afee4;
      }

      .cls-23 {
        fill: #6afee3;
      }

      .cls-24 {
        fill: #9be1ec;
      }

      .cls-25 {
        fill: #9ef1ed;
      }

      .cls-26 {
        fill: #9df2ec;
      }

      .cls-27 {
        fill: #9cf7ed;
      }

      .cls-28 {
        fill: #b2f4f0;
      }

      .cls-29 {
        fill: #65bee2;
      }

      .cls-30 {
        fill: #b9d9f1;
      }

      .cls-31 {
        fill: #b6f4f1;
      }

      .cls-32 {
        fill: #a9f9ef;
      }

      .cls-33 {
        fill: #bcfaf2;
      }

      .cls-34 {
        fill: #aef0f0;
      }

      .cls-35 {
        fill: #0efbd3;
      }

      .cls-36 {
        fill: #0df3d3;
      }

      .cls-37 {
        fill: #0df0d3;
      }

      .cls-38 {
        fill: #07b6d1;
      }

      .cls-39 {
        fill: #07b5d1;
      }

      .cls-40 {
        fill: #07bad1;
      }

      .cls-41 {
        fill: #07b9d1;
      }

      .cls-42 {
        fill: #06b3d1;
      }

      .cls-43 {
        fill: #09cdd2;
      }

      .cls-44 {
        fill: #09cad1;
      }

      .cls-45 {
        fill: #09c3d1;
      }

      .cls-46 {
        fill: #09c9d1;
      }

      .cls-47 {
        fill: #09cfd2;
      }

      .cls-48 {
        fill: #09ccd2;
      }

      .cls-49 {
        fill: #07b7d1;
      }

      .cls-50 {
        fill: #09ced2;
      }

      .cls-51 {
        fill: #0ad2d2;
      }

      .cls-52 {
        fill: #08c4d1;
      }

      .cls-53 {
        fill: #08c2d1;
      }

      .cls-54 {
        fill: #08bfd1;
      }

      .cls-55 {
        fill: #08c8d1;
      }

      .cls-56 {
        fill: #08c5d1;
      }

      .cls-57 {
        fill: #08c6d1;
      }

      .cls-58 {
        fill: #08c0d1;
      }

      .cls-59 {
        fill: #08c1d1;
      }

      .cls-60 {
        fill: #08c3d1;
      }

      .cls-61 {
        fill: #09d1d2;
      }

      .cls-62 {
        fill: #09cbd2;
      }

      .cls-63 {
        fill: #09c8d1;
      }

      .cls-64 {
        fill: #08c7d1;
      }

      .cls-65 {
        fill: #0efed3;
      }

      .cls-66 {
        fill: #049fd0;
      }

      .cls-67 {
        fill: #049cd0;
      }

      .cls-68 {
        fill: #049dd0;
      }

      .cls-69 {
        fill: #049bd0;
      }

      .cls-70 {
        fill: #04a0d0;
      }

      .cls-71 {
        fill: #049ad0;
      }

      .cls-72 {
        fill: #049ed0;
      }

      .cls-73 {
        fill: #0499d0;
      }

      .cls-74 {
        fill: #05a1d0;
      }

      .cls-75 {
        fill: #05a2d0;
      }

      .cls-76 {
        fill: #05a3d0;
      }

      .cls-77 {
        fill: #05a9d1;
      }

      .cls-78 {
        fill: #05a5d0;
      }

      .cls-79 {
        fill: #05a4d0;
      }

      .cls-80 {
        fill: #05aad1;
      }

      .cls-81 {
        fill: #05a7d0;
      }

      .cls-82 {
        fill: #05a6d0;
      }

      .cls-83 {
        fill: #05a8d0;
      }

      .cls-84 {
        fill: #0ad6d2;
      }

      .cls-85 {
        fill: #0ad5d2;
      }

      .cls-86 {
        fill: #09d0d2;
      }

      .cls-87 {
        fill: #0bdfd2;
      }

      .cls-88 {
        fill: #0ce9d2;
      }

      .cls-89 {
        fill: #0ce7d2;
      }

      .cls-90 {
        fill: #0cedd2;
      }

      .cls-91 {
        fill: #0cd9d3;
      }

      .cls-92 {
        fill: #0cebd2;
      }

      .cls-93 {
        fill: #0df6d3;
      }

      .cls-94 {
        fill: #0df9d3;
      }

      .cls-95 {
        fill: #0be5d2;
      }

      .cls-96 {
        fill: #0be3d2;
      }

      .cls-97 {
        fill: #0be1d2;
      }

      .cls-98 {
        fill: #0bddd2;
      }

      .cls-99 {
        fill: #0bd5d2;
      }

      .cls-100 {
        fill: #06b0d1;
      }

      .cls-101 {
        fill: #06aed1;
      }

      .cls-102 {
        fill: #07bcd1;
      }

      .cls-103 {
        fill: #06b1d1;
      }

      .cls-104 {
        fill: #06abd1;
      }

      .cls-105 {
        fill: #06afd1;
      }

      .cls-106 {
        fill: #06add1;
      }

      .cls-107 {
        fill: #06acd1;
      }

      .cls-108 {
        fill: #06a5d0;
      }

      .cls-109 {
        fill: #0ad9d2;
      }

      .cls-110 {
        fill: #0adbd2;
      }

      .cls-111 {
        fill: #57b0e0;
      }

      .cls-112 {
        fill: #48e5dd;
      }

      .cls-113 {
        fill: #58e0e0;
      }

      .cls-114 {
        fill: #58fee0;
      }

      .cls-115 {
        fill: #82d0e7;
      }

      .cls-116 {
        fill: #4db1de;
      }
    </style>
  </defs>
  <path class="cls-19" d="M.04,143.27c.51,.44,1.04,.85,1.52,1.32,22.56,22.55,45.1,45.11,67.69,67.62,1.32,1.32,1.32,2,0,3.31-22.59,22.51-45.13,45.07-67.69,67.62-.47,.47-1.01,.88-1.52,1.32,0-47.07,0-94.14,0-141.2Z"/>
  <path class="cls-19" d="M88.49,.04c-.44,.51-.85,1.04-1.32,1.52C58.64,30.1,30.1,58.64,1.56,87.17c-.47,.47-1.01,.88-1.52,1.32,0-28.94,.01-57.89-.04-86.83C0,.27,.27,0,1.66,0,30.61,.05,59.55,.04,88.49,.04Z"/>
  <path class="cls-15" d="M629.19,479.18c-.21,.3-.42,.6-.64,.89-1.11,1.35-2.13,2.84-4.2,2.67,.19-1.75,2.15-2.05,2.8-3.43,.84-.98,1.69-1.95,2.31-3.08,.47-.87,.21-1.42-.8-1.55-.61-.08-1.21-.06-1.82-.06-136.15,0-272.31,0-408.46,0-1.08,0-2.16,.02-3.22,.25-1.05,.22-1.51-.36-1.73-1.28-.27-.66,.38-1.5-.39-2.07-.49-.32-.71-.78-.76-1.35-.03-1.55-.7-3.17,.52-4.58,.95-.5,1.97-.4,2.98-.4,22.71,0,45.42,0,68.13,0,1.01,0,2.03,.09,3.03,.11,1.3,.09,2.44,.68,3.47,1.39,1.43,.98,2.74,1.61,4.06-.1,1.07-.26,2.16-.19,3.24-.19,110.25,0,220.5,0,330.74,0,1.21,0,2.44-.17,3.59,.39,1.23,1.28,.54,2.89,.73,4.34,.1,1.51-.72,2.82-.98,4.25-.48,1.52-1.34,2.79-2.59,3.79Z"/>
  <path class="cls-110" d="M632.16,246.31c-.52,.58-1.05,1.15-1.57,1.73-.35,.46-.82,.62-1.39,.54-1.15,.09-2.3,.03-3.45,.03-136.26,0-272.52,0-408.78,0-1.4,0-2.85,.24-4.19-.42-1.18-1.42-.56-3.06-.58-4.62,.1-.52,.05-1.09,.43-1.53,1.06-1.34,2.49-1.75,4.13-1.65,.67,.04,1.35,0,2.03,0,136.28,0,272.56,0,408.85,0,1.47,0,2.98-.24,4.41,.38,1.25,1.5,.67,3.22,.57,4.89-.11,.24-.26,.45-.46,.63Z"/>
  <path class="cls-87" d="M632.22,245.96l-.04-4.9c-.84-.53-1.3-1.31-1.65-2.23-.61-1.61-1.75-2.51-3.57-2.39-.74,.05-1.49,0-2.23,0-134.76,0-269.52,0-404.28,0-1.82,0-3.65-.08-5.36,.75-1.27-.75-.28-1.48,.03-2.21l.37-.41c.29-.45,.57-.91,1.06-1.17,.74-.71,1.55-1.34,2.25-2.11,.48-.5,1.07-.8,1.73-1,2.48-1.81,5.27-2.1,8.26-2.1,128.87,.04,257.73,.06,386.6-.06,5.53,0,9.86,1.58,13.41,5.67,.27,.31,.59,.56,.87,.85,2.87,2.73,3.52,6.34,3.92,10.03,.1,.89-.16,1.66-1.37,1.28Z"/>
  <path class="cls-84" d="M619.49,259.28c-.51,.49-1.02,.98-1.53,1.46-.55,.68-1.12,1.34-2.13,1.22-1.29,.08-2.57,.05-3.85,.05-131.65,0-263.3,0-394.95-.01-1.47,0-2.99,.3-4.37-.49-.92-2.38-.83-4.77-.07-7.17,.63-.48,1.38-.5,2.12-.53,.88-.03,1.76-.02,2.64-.02,133.68,0,267.35,0,401.03,0,1.48,0,2.98-.19,4.42,.29,1.06,.62,.41,1.21-.1,1.72-1.12,1.12-2.17,2.29-3.21,3.48Z"/>
  <path class="cls-85" d="M212.69,261.35c133.66,0,267.33,0,400.99,.02,.9,0,1.9-.38,2.7,.41-1.02,2.19-3.13,3.42-4.58,5.22-1.56,1.15-2.63,2.84-4.31,3.85,.29-1.67-.43-1.98-2.05-1.98-43.81,.06-87.62,.05-131.44,.04-19.4,0-38.81,0-58.21,0-66.33,0-132.65,0-198.98-.01-1.4,0-2.85,.27-4.17-.49-.86-2.36-.96-4.71,.04-7.06Z"/>
  <path class="cls-109" d="M623.28,254.86c-.74-.74-1.67-.39-2.51-.39-136.03-.02-272.05-.02-408.08-.02-.96-2.16-.96-4.33,0-6.49,138.14,0,276.28,0,414.42,.02,.89,0,1.91-.4,2.68,.44-.23,1.31-1.5,1.79-2.17,2.75-.24,.23-.49,.45-.73,.68-1.23,.97-1.93,2.58-3.61,3.01Z"/>
  <path class="cls-89" d="M254.12,210.65c.38-.29,.76-.58,1.14-.88,4.25-2.41,8.43-4.93,12.71-7.28,.95-.13,1.67-.76,2.49-1.17,.23-.07,.45-.16,.66-.28,.71-.55,1.53-.46,2.34-.46,98.63,.11,197.25,.02,295.88,.07,1.59,0,3.24-.53,4.78,.32,.21,.09,.43,.18,.64,.27,.66,.31,1.25,.79,2.01,.87,3.36,2.21,7.16,3.66,10.37,6.13v-.02c.7,.21,1.34,.56,1.86,1.08,.62,.63-.03,.72-.44,.9-2.23,.02-4.45-.14-6.68-.14-106.02,.01-212.05,.01-318.07,.01-2.56,0-5.14-.19-7.59,.89-.69,.31-1.46,.26-2.09-.31Z"/>
  <path class="cls-51" d="M212.69,268.24h396.52c-.64,.96-1.18,1.78-1.72,2.59-2.28,2.31-4.18,4.99-6.89,6.86-.73-1.55,1.1-1.96,1.39-3.09-.45-.72-1.19-.43-1.8-.43-40.98-.02-81.96-.01-122.94-.03-1.13,0-2.16,.1-2.9,1.07-.97-1.18-2.4-1.99-2.87-3.57-.2-.87-.91-1.31-1.55-1.79h0c-.65-.87-1.2-1.21-1.43,.24-.07,.44,.14,.93-.2,1.33,.61,3.01,.35,6.07,.35,9.1,.02,37.95,.02,75.9,.01,113.85,0,.81-.05,1.62-.08,2.42-1.21-.56-.74-1.69-.87-2.61-.09-2.91-.07-5.82-.02-8.74-.07-3.5-.08-6.99,0-10.49-.07-3.51-.08-7.02,0-10.53-.06-2.98-.07-5.95,0-8.93-.06-2.71-.07-5.42,0-8.13-.06-2.58-.07-5.16,0-7.74-.07-3.5-.08-7.01,0-10.51-.07-3.24-.08-6.49,0-9.73-.07-2.85-.07-5.7,0-8.55-.07-3.64-.08-7.28,0-10.92-.07-2.85-.07-5.7,0-8.56-.07-3.49-.08-6.98,0-10.47-.08-1.62-.04-3.24-.03-4.86,0-1.25-.49-1.91-1.79-1.88-.54,.01-1.08-.01-1.62-.01-14.33,0-28.66,0-42.99,.01-.98,0-2.06-.28-2.86,.61-.83,1.01-1.47,.19-1.98-.33-1.37-1.39-2.79-2.72-4.11-4.14-1.31-.21-.6,.82-.68,1.24-.19,.94,.09,2.05-1.2,2.45-1.07,.26-2.16,.19-3.24,.19-63.58,0-127.16,0-190.75,0-1.27,0-2.58,.22-3.77-.48-.88-1.82-.93-3.63,.02-5.45Z"/>
  <path class="cls-95" d="M254.12,210.65c16.41-2.71,32.94-.81,49.41-1.16,16.56-.35,33.13-.08,49.69-.08,72.21,0,144.41-.01,216.62,.02,6.47,0,12.96-.42,19.42,.36,2.56,.41,4.44,2.19,6.63,3.35,.61,.32,1.36,.56,1.8,1.19l-.02-.02c2.68,1.32,5.29,2.75,7.74,4.47v-.02c.71,.47,2.05,.35,1.71,1.82-.48,.17-.94,.09-1.38-.14-3.37-1.73-6.6-3.7-9.94-5.48-.94-.5-1.81-.83-2.87-.41-1.09,.43-2.26,.36-3.41,.36-111.28,0-222.56,0-333.84,0-.41,0-.82,.06-1.21-.03-2.22-.49-4.39-.37-6.49,.54-1.54-.35-.64-.94-.07-1.33,1.85-1.29,3.91-2.23,5.81-3.45,.13,0,.27,0,.4-.01Z"/>
  <path class="cls-73" d="M348.73,453.28c.14,.07,.27,.17,.38,.28,2.39,2.35,4.78,4.69,7.16,7.04,.53,.52,1.01,.97,1.87,.97,10.98-.05,21.96-.07,32.94-.09,.25,0,.49-.07,.71-.18,1.08-.5,2.25-.43,3.41-.43,17.15,0,34.31,0,51.46,0,1.01,0,2.03,.08,3.02-.16,.79-.32,.78-1,.79-1.7,.02-.81-.01-1.65,.76-2.2,.68-.36,1.42-.38,2.16-.38,4.23-.02,8.46-.02,12.68,0,.43,0,.87,0,1.29,.08,.66,.12,1.21,.64,1.29,1.31,0,.01,0,.03,0,.04,.14,1.27,1.76,1.8,2.65,.89,.18-.19,.37-.36,.58-.52,1.71-1.71,3.83-1.86,6.11-1.85,50.07,.04,100.13,.03,150.2,.04,1.09,0,2.21-.16,3.26,.18,.43,.14,.78,.47,.94,.89,.53,1.42,.51,2.84,.07,4.27-.17,.54-.59,.98-1.14,1.11-.4,.09-.82,.11-1.24,.13-.61,.03-1.22,.02-1.82,.02-110.05,0-220.09,0-330.14-.02-1.06,0-2.16,.16-3.19-.16-.48-.15-.99-.53-.99-1.03-.04-2.76-.14-4.76-.05-7.8,.02-.56,.56-.99,1.11-1.13,.65-.16,1.33-.12,2-.12,16.26-.01,32.53,0,48.79-.01,1.02,0,2.01,.06,2.92,.53Z"/>
  <path class="cls-75" d="M495.35,434.57c2.25-2.62,4.72-5.02,7.29-7.31,1.44-.98,2.54-2.35,3.84-3.49,.87-.77,1.77-1.18,2.91-1.16,.54,0,1.08,0,1.62,0,39.13,0,78.26,0,117.39,0,1.14,0,2.3-.12,3.42,.27,.25,.11,.46,.28,.62,.5,.4,3.54,.8,7.08-.22,10.59-1.25,.74-2.63,.49-3.97,.49-41.98,.01-83.96,0-125.95,.02-1.89,0-3.79-.17-5.64,.39-.47,.14-.94,.08-1.32-.29Z"/>
  <path class="cls-86" d="M474.34,275.22c-.16-1.1-.12-1.74,1.43-1.74,42.28,.05,84.55,.04,126.83,.04,.27,0,.53,.04,.87,.06,.02,2.1-2.68,2.25-2.87,4.12-1.33,2.07-3.26,3.57-4.96,5.28-3.6,3.62-7.28,7.17-10.92,10.75-.15-.21-.21-.45-.18-.71,.06-.25,.17-.47,.31-.68,2.26-2.49,4.65-4.87,7.01-7.3-.55-.58-1.19-.33-1.74-.33-34.53-.01-69.07-.01-103.6-.02-1.16,0-2.3,0-3.28,.75-1.46-1.68-2.93-3.36-4.39-5.05-.9-1.28-1.75-2.6-3.01-3.58-.5-.53-.99-1.07-1.49-1.6Z"/>
  <path class="cls-67" d="M632.21,462.19v-5.27c-.7-.78-.7-1.76-.64-2.69,.11-1.79-.75-2.44-2.43-2.34-.81,.05-1.62,0-2.43,0-47.1,0-94.2,0-141.3,0-2.07,0-4.24,.23-5.88-1.5,2.27-2.59,4.71-5.02,7.29-7.31,1.29-.86,2.71-1.04,4.24-1.04,46,.02,91.99,.01,137.99,.02,1.01,0,2.03-.09,2.98,.38,1.26,1.11,.4,2.77,1.04,4.05,.26,4.66,.05,9.32,.12,13.98,.02,1.08-.09,2.16,.17,3.23,.13,1.59,.07,3.19,.04,4.79-.51,.98,.35,2.49-1.17,3.09,0-1.5-.01-3-.02-4.5-.92-1.62-.92-3.25,0-4.87Z"/>
  <path class="cls-78" d="M632.21,423.24c-40.33,0-80.66,.04-120.99-.08-2.92,0-4.95,.93-6.82,2.89-.49,.51-.86,1.26-1.76,1.21,4.18-4.48,8.51-8.81,13-12.98,2.2-2.7,5.25-2.25,8.2-2.25,33.65,0,67.29-.02,100.94,.02,9.47,0,7.84-1.05,7.99,8.1,.02,1.05,.28,2.18-.56,3.1Z"/>
  <path class="cls-66" d="M632.21,442.72c-47.06,0-94.12,0-141.18,0-1.42,0-2.83-.01-4.21,.37,2.7-2.98,5.52-5.85,8.53-8.51,3.15-1.3,6.46-.75,9.71-.75,42.38-.03,84.77-.02,127.15-.02,.91,2.98,.91,5.95,0,8.93Z"/>
  <path class="cls-80" d="M520.91,409c3.76-4.09,7.7-7.99,11.76-11.77,1.28-.87,2.71-1.04,4.23-1.04,30.66,.02,61.31,.01,91.97,.02,1.13,0,2.31-.16,3.35,.5,.5,.53,.57,1.21,.52,1.87-.19,2.97,.53,5.98-.44,8.91-1.08,.78-2.33,.57-3.53,.57-33.15,.01-66.31,0-99.46,.02-2.54,0-5.15-.39-7.48,1.1-.3,.19-.66,.04-.94-.18Z"/>
  <path class="cls-43" d="M483.23,285.44c-.15-.93-.02-1.44,1.19-1.41,3.24,.09,6.48,.03,9.72,.03,32.35,0,64.69,0,97.04,.01,.71,0,1.45-.2,1.89,.03-2.76,2.94-5.55,5.91-8.34,8.88-.92,.76-2.03,.65-3.1,.65-29.75,.01-59.51,0-89.26,.02-.75,0-1.48-.15-2.22-.19-2.51-2.5-4.63-5.35-6.92-8.04Z"/>
  <path class="cls-106" d="M632.21,396.87c-31.77,0-63.55,0-95.32,0-1.42,0-2.83-.02-4.21,.37,2.69-2.99,5.53-5.83,8.53-8.52,2.2-2.7,5.25-2.25,8.2-2.25,25.4,0,50.8,0,76.19,0,8.4,0,7.07-.68,7.17,7.3,.01,1.05,.28,2.18-.56,3.1Z"/>
  <path class="cls-44" d="M490.15,293.48c.69-.83,1.64-.47,2.47-.47,30.71-.02,61.41-.02,92.12-.02,0,.14-.02,.27-.02,.41-2.13,2.57-4.68,4.73-6.9,7.2-1.03,1.32-2.26,2.43-3.55,3.49-1.14,.08-2.29,.12-3.44,.12-22.24,0-44.47,0-66.71-.01-1.42,0-2.84,0-4.18,.57-2.67-3.05-5.34-6.1-8.01-9.16-.61-.69-1.18-1.42-1.77-2.12Z"/>
  <path class="cls-71" d="M479.53,450.39c3.58,1.34,7.32,.83,11,.83,46.29,.03,92.57,.02,138.86,.02q2.82,0,2.82,2.84c0,.95,0,1.89,0,2.84-51.17,0-102.34,0-153.51,0-2.39,0-4.82-.29-6.96,1.17,2.53-2.63,5.02-5.3,7.79-7.69Z"/>
  <path class="cls-42" d="M549.3,380.6c3.09-3.4,6.35-6.64,9.74-9.74,2.62-3.59,6.39-3.51,10.31-3.49,19.7,.09,39.4,.04,59.11,.04,4.23,0,4.39,.1,4.3,4.28-.05,2.33,.49,4.71-.43,7-1.08,.79-2.33,.57-3.53,.57-23.93,.01-47.87,0-71.8,.01-2.28,0-4.63-.32-6.56,1.4-.31,.27-.77,.23-1.13-.07Z"/>
  <path class="cls-100" d="M549.3,380.6c.07,0,.17,.03,.2,0,2.27-2.62,5.34-1.97,8.22-1.97,24.83-.01,49.65,0,74.48,0,.8,.82,.5,1.86,.56,2.82,.08,1.38-.16,2.78,.29,4.13,.36,3.03-.16,6.09,.34,9.11,.06,22.42,.01,44.84,.02,67.26,0,.65,.15,1.37-.48,1.88-.54-.64-.31-1.42-.31-2.13-.02-5.1-.02-10.21-.02-15.32-.41-1.32-.17-2.67-.18-4.01-.03-6.34-.01-12.68-.01-19.02-.15-4.17,.32-8.35-.4-12.51-.19-1.1-.2-2.29,.19-3.41v-10.55c0-2.57-.09-5.14,.03-7.7,.07-1.59-.41-2.08-2.04-2.07-10.14,.07-20.27,.04-30.41,.04-17.77,0-35.55,0-53.32,0-1.6,0-3.28-.28-4.3,1.48-.1,.17-.63,.08-.96,.11,2.54-2.87,5.27-5.54,8.1-8.11Z"/>
  <path class="cls-52" d="M395.69,327.74c.03-2.09,.05-4.18,.09-6.27,.02-.9-.27-1.43-1.28-1.31-.27,.03-.54,0-.81,0-50.2,0-100.41,0-150.61,0-.54,0-1.08,.04-1.62,.07-9.62-.06-19.23-.22-28.85,.08-.18-.18-.3-.39-.37-.63-.11-.9-.2-1.8,.79-2.32,1.32-.43,2.68-.27,4.03-.27,66.43,0,132.86,0,199.3,0,1.62,0,3.24,0,4.86-.15,3.01,.64,4.45,3.12,6.13,5.29,.17,.22-.03,.5-.31,.63-3.6,1.14-7.31,.64-10.99,.77-1.37-.37-1.99-1.77-3.21-2.36-.56,.44-.34,1.01-.35,1.51-.03,1.15-.03,2.29,0,3.44,.29,13.08-.64,26.16-.42,39.24,.01,.87,.07,1.77-.5,2.53-.25,.15-.47,.11-.67-.1-.53-.78-.47-1.67-.47-2.53,0-3.29-.07-6.58,.03-9.87-.07-3.51-.08-7.02,0-10.53-.07-2.97-.08-5.95,0-8.92-.09-3.38-.07-6.75-.02-10.13,.02-1.63-.54-2.33-2.23-2.28-2.9,.08-5.81,.03-8.71,.02-1.33,0-1.91,.52-2.02,1.9-.57,7.69-.5,15.38-.41,23.08,.1,5.26-.18,10.51,0,15.77-.03,5.13-.05,10.25-.08,15.38,0,.79,.29,1.85-.99,2.1-.3-.72-.15-1.47-.15-2.2,0-16.58,0-33.17-.01-49.75,0-.73,.15-1.48-.16-2.2Z"/>
  <path class="cls-83" d="M632.21,407.42c.62,.53,.39,1.25,.4,1.89,.01,4.64,0,9.29,0,13.93-.13,.19-.26,.18-.4,0,0-2.97-.04-5.95,.02-8.92,.03-1.22-.37-1.7-1.62-1.65-1.89,.08-3.78,.02-5.68,.02-34.61,0-69.21,0-103.82,0-1.65,0-3.43-.38-4.5,1.47-.1,.17-.63,.08-.96,.11,1.62-1.89,3.32-3.7,5.27-5.27,3.31-2.52,7.17-1.55,10.82-1.55,33.49-.06,66.98-.03,100.48-.03Z"/>
  <path class="cls-55" d="M499.93,304.77c0-.67,.11-1.23,.97-1.22,.47,0,.95,0,1.42,0,23.17,0,46.34,0,69.5,.02,.83,0,1.78-.37,2.44,.53-2.33,2.53-4.76,4.96-7.34,7.25-1,.14-2.01,.18-3.03,.18-18.65,0-37.29-.03-55.94,.01-.68,0-1.35-.03-2.02-.14-2.38-1.87-3.94-4.47-6.01-6.62Z"/>
  <path class="cls-42" d="M577.31,352.6c3.34-3.69,6.9-7.17,10.55-10.55,1.28-.88,2.7-1.04,4.22-1.04,12.32,.03,24.64,.01,36.96,.02,1.07,0,2.17-.13,3.15,.48,.31,.29,.51,.66,.5,1.06-.05,4.27,.77,8.52,.46,12.8-.03,.47-.12,.93-.45,1.3-1.44-.3-1.04-1.5-1.11-2.4-.2-2.49-.23-2.6-2.75-2.6-15.47-.01-30.95,0-46.42,0-1.16,0-2.28,.06-3.27,.83-.55,.43-1.19,.68-1.84,.11Z"/>
  <path class="cls-56" d="M505.94,311.38c.52-.78,1.33-.53,2.04-.53,18.96-.01,37.92-.01,56.88,0,.71,0,1.51-.27,2.06,.47-2.72,2.97-5.59,5.78-8.54,8.5-1.26-.6-2.6-.64-3.96-.64-13.98,.01-27.96,0-41.93,0q-3.68,0-3.85,3.57c0,1.95,.09,3.91-.09,5.86-.03,.24-.08,.48-.14,.71-.35,1.09-.15,2.21-.21,3.31-.04,.77,.11,1.59-.58,2.19-.49-1.09-.33-2.24-.31-3.37,.1-4.96-.36-9.94,.29-14.88,.27-2.05-.73-3.6-1.66-5.22Z"/>
  <path class="cls-41" d="M577.31,352.6c.27,0,.69,.09,.78-.04,1.54-2.17,3.82-1.52,5.89-1.53,15.25-.03,30.49,.03,45.74-.07,2.14-.01,2.71,.63,2.53,2.62-.09,1.01-.43,2.16,.35,3.11,.97,2.52,.78,5.07,.13,7.62-1.33,.14-.9-.95-1.11-1.59q-.22-4.16-4.48-4.16c-16.82,0-33.64,0-50.46,0-2.05,0-4.07-.1-5.63,1.61-.36,.4-.93,.58-1.46,.15,2.41-2.73,5-5.29,7.72-7.71Z"/>
  <path class="cls-54" d="M548.6,329.44c-3.68,3.36-6.66,7.44-10.54,10.61-.79,.21-1.59,.27-2.4,.27-8.23-.01-16.47,0-24.7-.02-1,0-2.04,.14-2.92-.54-.31-3.55-.32-7.1,0-10.65h0c.59-.54,1.33-.64,2.08-.64,12.16-.03,24.32-.05,36.48,.02,.75,0,1.69-.11,2,.95Z"/>
  <path class="cls-38" d="M632.21,362.78c.06,.56-.19,1.19,.4,1.62,.68,.63,.57,1.48,.57,2.27,.02,5.52,.02,11.04,0,16.56,0,.79,.1,1.64-.57,2.27-.87-2.26-.18-4.6-.4-6.9,0-2.77-.11-5.54,.04-8.31,.09-1.77-.42-2.29-2.24-2.29-16.01,.07-32.02,.04-48.03,.04-5.4,0-10.81,.08-16.21-.04-2.24-.05-4.13,.35-5.54,2.2-.29,.38-.63,.71-1.18,.64,.94-1.23,1.99-2.34,3.26-3.24,1.46-.98,2.51-2.38,3.73-3.61,1.2-1.21,2.55-1.87,4.29-1.87,19.8,0,39.59,0,59.39,.01,.88,0,1.77-.01,2.49,.63Z"/>
  <path class="cls-100" d="M632.21,341.68c-13.38,0-26.76,0-40.14,0-1.42,0-2.83-.02-4.21,.37,1.82-1.87,3.65-3.74,5.47-5.62,1.13-.93,2.11-2.02,3.15-3.05,.58-.56,1.15-1.12,2.02-1.18,10.59-.23,21.17-.11,31.76-.06,2.01,0,2.55,.57,2.47,2.6-.09,2.31,.62,4.7-.53,6.93Z"/>
  <path class="cls-49" d="M632.21,362.78c-20.21,0-40.41,.05-60.61-.05-2.79-.01-4.94,.62-6.73,2.81-.66,.8-1.15,2.09-2.55,2.08,2.24-2.62,4.72-5.01,7.29-7.3,.25-.07,.64-.05,.74-.21,1.52-2.39,3.86-2.21,6.25-2.2,17.54,.04,35.07,.02,52.61,.03,3.38,0,2.98-.37,3.01,3.04,0,.61,0,1.21,0,1.82Z"/>
  <path class="cls-53" d="M548.6,329.44c-.71-.59-1.56-.32-2.34-.32-12.74-.02-25.48-.01-38.22-.01,0-2.03,0-4.06,0-6.09,.72-.65,1.61-.65,2.49-.65,13.85-.02,27.71-.02,41.56,.01,.94,0,2.08-.26,2.59,.98-1.91,2.15-3.75,4.36-6.09,6.08Z"/>
  <path class="cls-102" d="M508.05,339.66c9.24,0,18.47,0,27.71,.01,.77,0,1.63-.3,2.31,.37-2.85,3.08-5.84,6.02-8.95,8.84-2.39,.58-4.83,.31-7.25,.33-3.71,.04-7.42,.02-11.13,0-.93,0-1.91,.1-2.71-.55-.27-3.01-.31-6.01,.02-9.01Z"/>
  <path class="cls-60" d="M554.69,323.36c-.71-.61-1.55-.33-2.33-.33-14.77-.02-29.54-.01-44.31-.01q0-4.46,4.43-4.46c14.58,0,29.17,0,43.75,.01,.91,0,2.2-.46,2.15,1.26-1.13,1.28-2.21,2.61-3.69,3.53Z"/>
  <path class="cls-41" d="M508.05,348.58c6.31,0,12.62,0,18.93,.01,.72,0,1.49-.23,2.14,.29-3.48,3.43-6.95,6.85-10.43,10.28-3.53,.91-7.06,1.06-10.58-.03-.03-1.6-.05-3.19-.08-4.79-.26-1.92-.32-3.84,.03-5.76Z"/>
  <path class="cls-104" d="M468.69,460.57c-.83-1.14-.21-2.44-.43-3.65-1.18-2.22-.42-4.6-.58-6.91-.07-3.5-.08-7.01,0-10.51-.07-2.98-.07-5.97,0-8.95-.07-3.51-.08-7.02,0-10.53-.07-2.98-.07-5.96,0-8.93-.09-1.75-.02-3.49-.04-5.24-.06-5.2,.62-4.66-4.8-4.69-3.16-.02-6.32,.01-9.47-.01-.93,0-1.9,.08-2.69-.6-.74-1.69-.4-3.45-.32-5.19,.04-.96,.77-1.44,1.65-1.47,5.06-.19,10.12-.21,15.19,.01,.41,.02,.77,.25,1.07,.53,.13,.79-.24,1.64,.3,2.38,.03,5.19,.07,10.39,.07,15.58,.02,16.06,.03,32.12,.05,48.17Z"/>
  <path class="cls-112" d="M597.68,332.74c-1.64,1.01-2.48,2.96-4.35,3.69,.48-.55,.93-1.14,1.45-1.66,11.69-11.7,23.51-23.26,35.02-35.13,6.29-6.48,12.67-12.87,19.04-19.26,.32-.47,.72-.87,1.19-1.19,1.36-1.36,2.72-2.72,4.09-4.09,.32-.47,.72-.87,1.19-1.19,1.36-1.36,2.72-2.72,4.09-4.09,.32-.47,.72-.87,1.19-1.19,1.36-1.36,2.72-2.72,4.08-4.08,.32-.47,.72-.87,1.19-1.19,6.37-6.37,12.73-12.73,19.09-19.1,.32-.47,.72-.87,1.19-1.19l4.09-4.04c.22-.34,.44-.68,.94-.59,.45,.17,.55,.52,.49,.95-.55,.73-.7,1.77-1.66,2.19-.75-.19-1.07,.41-1.48,.83-4.22,4.23-8.45,8.43-12.65,12.67-4.49,4.43-8.93,8.91-13.38,13.38-3.01,2.95-5.97,5.95-8.94,8.94-3.54,3.49-7.03,7.01-10.54,10.53-2.98,2.92-5.91,5.9-8.86,8.85-.53,.5-1.05,1-1.54,1.54-.12,.14-.25,.27-.38,.4-2.5,2.48-5.02,4.93-7.43,7.49-2.74,2.68-5.47,5.37-8.15,8.1-3.01,2.95-5.97,5.95-8.94,8.94-2.63,2.57-5.21,5.19-7.8,7.79-.67,.67-1.35,1.29-2.21,1.68Z"/>
  <path class="cls-19" d="M212.62,320.32c0,.46,.22,1.1-.3,1.27-.6,.19-.99-.4-1.15-.91-.15-.5-.13-1.07-.13-1.6,0-24.48,0-48.95,0-73.43,0-1.99,1.15-3.81,.98-5.84,0-.1,.42-.24,.65-.37,.74,1.5-.55,2.9-.22,4.39,0,6.89-.15,13.79,.03,20.68,.43,16.67,.3,33.34,.39,50.02,.01,1.87-.92,3.69-.19,5.57-.01,.08-.03,.16-.07,.24Z"/>
  <path class="cls-49" d="M508.1,359.13c3.53,.01,7.05,.02,10.58,.03-3.51,3.39-7.01,6.78-10.58,10.22v-10.26Z"/>
  <path class="cls-24" d="M633.79,333.27c0,44.99,.02,89.98,.02,134.97-.3,.16-.49,.07-.57-.26-.05-19.33,.09-38.67-.05-58-.15-19.94-.12-39.87-.21-59.81-.03-5.4-.23-10.8-.01-16.21,.15-.37,.26-.8,.82-.69Z"/>
  <path class="cls-19" d="M453.27,582.41c-2.18,2.27-5.13,3.31-7.77,4.83-5.09,2.93-10.06,6.08-15.31,8.68-3.94,1.96-8.24,1.86-12.6,.76-5.04-1.27-8.83-4.75-13.36-6.86-1.21-.56-2.21-1.15-2.94-2.21,.08-.07,.16-.13,.23-.2,.74-.21,1.31,.18,1.88,.54,2.91,1.83,6,3.34,8.92,5.16,6.82,4.27,13.63,4.32,20.56,.08,5.92-3.62,12.03-6.92,18.01-10.43,.58-.34,1.17-.69,1.88-.68,.22,.03,.39,.14,.49,.33Z"/>
  <path class="cls-19" d="M314.91,538.48c-2.76-2.06-5.92-3.45-8.8-5.29-3.01-1.91-6.15-3.57-9.29-5.25-.54-.29-.71-.78-1.01-1.2,.07-.06,.14-.13,.21-.19,.49-.18,.93,.02,1.37,.2,.18,.07,.34,.16,.51,.25,3.35,2.09,6.82,3.95,10.25,5.9,2.57,1.49,5.1,3.04,7.71,4.46,7.18,4.22,14.43,8.34,21.62,12.54,.58,.34,1.21,.61,1.45,1.32-.04,.09-.07,.18-.11,.28-2.81-.46-5.19-2.05-7.35-3.6-2.44-1.76-5.2-2.84-7.66-4.51-2.59-1.76-5.38-3.23-8.1-4.8-.21-.12-.52-.07-.79-.1Z"/>
  <path class="cls-19" d="M462.2,135.95c3.12,.97,5.8,2.81,8.6,4.41,4.93,2.82,9.9,5.6,14.74,8.58,4.62,2.84,9.56,5.14,14.02,8.24,.19,.13,.26,.44,.39,.67-.07,.06-.15,.13-.22,.19-1.89,.05-3.05-1.49-4.61-2.16-1.34-.57-2.5-1.53-3.83-2.16-3.51-2.04-6.97-4.15-10.54-6.08-5.15-3.18-10.49-6.02-15.69-9.12-1.06-.64-2.39-.99-2.96-2.29,.03-.09,.06-.19,.09-.28Z"/>
  <path class="cls-19" d="M607.5,220.33c-.7-.52-1.41-1.04-2.11-1.56,2.73,.49,5.09,2.05,7.26,3.46,2.39,1.55,4.91,2.77,7.34,4.2,5.04,2.96,10.1,5.89,12.5,11.67,1.01,2.43,1.55,4.94,1.34,7.59-.12,1.49-.93,.94-1.68,.62,.03-.11,.05-.23,.06-.35,.68-.1,1.21-.45,1.07-1.18-.61-3.33-.91-6.78-3.42-9.43-3.09-4.08-7.52-6.29-11.9-8.57-2.46-1.47-4.96-2.88-7.44-4.33-.17-.08-.33-.17-.48-.26-.78-.61-1.81-.83-2.49-1.6-.02-.09-.04-.18-.06-.27Z"/>
  <path class="cls-18" d="M613.57,489.81c-1.22,2.04-3.54,2.43-5.38,3.52-7.87,4.66-15.79,9.22-23.74,13.73-1.99,1.13-3.83,2.62-6.18,3.03-.04-.08-.08-.17-.11-.25,.35-.85,1.2-1.12,1.87-1.61,.16-.1,.33-.19,.5-.28,6.93-3.98,13.86-7.97,20.76-11.99,3.19-1.76,6.28-3.68,9.47-5.45,.81-.45,1.55-1.12,2.6-.9,.07,.06,.15,.13,.22,.19Z"/>
  <path class="cls-19" d="M497.53,556.76c-.53,1.09-1.59,1.48-2.57,2.03-5.36,3.02-10.68,6.08-15.9,9.35-2.61,1.64-5.52,2.81-8.2,4.38-.81,.47-1.31,1.67-2.56,1.25-.11-.1-.16-.22-.16-.34,0-.13,.02-.2,.04-.2,1.24-1.51,3.06-2.18,4.68-3.12,7.17-4.16,14.34-8.33,21.56-12.42,.97-.35,1.67-1.39,2.88-1.13,.07,.06,.14,.13,.22,.2Z"/>
  <path class="cls-114" d="M419.69,116.12c1.97,0,3.93,0,5.9,0,3.31,.63,6.34,1.89,9.01,3.97,.93,.56,1.87,1.13,2.8,1.69,.16,.2,.14,.38-.07,.53-1.37,.32-2.3-.6-3.29-1.24-4.86-3.12-10.06-4.57-15.81-3.22-3.35,.78-6.05,2.95-9.04,4.48-.77,.39-1.43,1.07-2.41,.83-.71-1.19,.58-.97,.97-1.39,.83-.54,1.67-1.08,2.5-1.62,1.14-.83,2.41-1.42,3.69-2v.02c.45-.79,1.38-.46,2-.86h0c1.1-.86,2.52-.72,3.75-1.19Z"/>
  <path class="cls-18" d="M560.02,520.65c-.97,1.77-2.93,2.19-4.47,3.12-5.09,3.08-10.23,6.09-15.44,8.96-1.95,1.07-3.82,2.4-6.05,2.93-.04-.09-.07-.18-.11-.27,1.16-1.82,3.31-2.17,4.9-3.36,6.04-3.47,12.04-7,18.09-10.45,.96-.37,1.67-1.39,2.87-1.14,.07,.06,.14,.13,.21,.2Z"/>
  <path class="cls-19" d="M542.49,181.84c4.48,2.56,8.96,5.13,13.44,7.69,4.01,2.29,7.83,4.89,12,6.89,.55,.27,.71,.77,1.01,1.2-.07,.06-.14,.13-.21,.19-1.19,.23-1.89-.74-2.84-1.12-1.75-.93-3.4-2.03-5.21-2.87-5.48-3.54-11.33-6.44-16.86-9.87-.56-.35-1.26-.54-1.53-1.24-.06-.32,0-.6,.2-.86Z"/>
  <path class="cls-19" d="M329.89,166.77c0-.69,.36-.92,.99-1.26,5.35-2.9,10.72-5.78,15.91-8.95,2.94-1.8,5.87-3.54,9.08-4.8,.04,.09,.07,.17,.11,.26-.41,.94-1.38,1.22-2.1,1.8-4.47,2.46-8.87,5.05-13.28,7.61-2.81,1.79-5.82,3.22-8.63,5-.56,.35-1.12,.75-1.85,.54-.07-.06-.15-.13-.22-.2Z"/>
  <path class="cls-19" d="M499.96,157.85c2.24,.17,4.03,1.53,5.7,2.7,2.36,1.64,5.02,2.64,7.39,4.17,3.39,2.19,6.85,4.24,10.46,6.05,.61,.31,.88,.78,1.19,1.29-.07,.06-.15,.13-.22,.19-.62,.18-1.13-.12-1.67-.35-3.92-2.25-7.77-4.63-11.75-6.79-3.06-1.82-6.19-3.52-9.24-5.34-.77-.46-1.79-.7-1.95-1.84l.07-.08Z"/>
  <path class="cls-19" d="M689.88,241.54c.97-.4,.65-1.72,1.55-2.17,.43-.43,.2-.88,.05-1.33-.02-.08-.03-.16-.05-.24-.03-.63,.62-.8,.85-1.25,.4-.22,.3-.45,.01-.68,.36-.59,.94-.67,1.33-.21,.48,.55,.32,1.25-.08,1.86-1.14,1.72-2.3,3.43-3.4,5.18-2.96,4.69-5.89,9.41-8.82,14.12-.2,.32-.47,.46-.81,.52-.06-.08-.13-.15-.19-.23-.16-.49,0-.94,.25-1.34,2.76-4.51,5.52-9.02,8.4-13.45,.22-.34,.49-.64,.9-.76Z"/>
  <path class="cls-19" d="M372.49,570.96c-2.21-.35-4.1-1.51-5.83-2.75-2.33-1.67-5.03-2.65-7.38-4.21-3.14-2.09-6.54-3.7-9.75-5.65-.15-.09-.12-.5-.17-.77,.07-.07,.15-.13,.22-.2,2.2,.34,3.86,1.81,5.74,2.81,1.6,.86,3.19,1.75,4.75,2.7,3.43,2.09,6.96,3.99,10.41,6.05,.79,.47,1.72,.78,2.13,1.73-.04,.09-.07,.18-.11,.27Z"/>
  <path class="cls-19" d="M253.72,210.66c-1.83,2.04-4.64,2.59-6.64,4.37-.04,.08-.07,.17-.11,.25-.82,.72-1.78,1.22-2.71,1.78-2.43,1.38-4.83,2.82-7.24,4.23-.16,.1-.32,.19-.49,.27-.94,.38-1.74,1.02-2.64,1.48-.51,.23-1,.52-1.59,.33-.07-.06-.14-.13-.21-.19,1.06-1.92,3.2-2.21,4.88-3.19,5.13-3.01,10.3-5.97,15.43-8.98,.44-.26,.84-.37,1.31-.35Z"/>
  <path class="cls-19" d="M268.19,202.9c-3.75,1.67-7.12,4.03-10.72,5.98-.7,.38-1.34,.91-2.2,.9,1.8-1.62,3.9-2.78,6.01-3.95,4.55-2.54,9.07-5.13,13.58-7.73,.49-.28,.95-.48,1.51-.47,.03,.09,.06,.18,.1,.27-.44,1.22-1.66,1.55-2.62,2.06-1.17,.62-2.37,1.2-3.6,1.7l.03-.02c-.59,.59-1.41,.79-2.07,1.26Z"/>
  <path class="cls-18" d="M578.27,510.1c-1.09,1.59-2.81,2.27-4.41,3.16-4.08,2.26-8.15,4.55-12.17,6.91-.57,.34-1.09,.41-1.68,.48,0,0-.08-.1-.08-.1,.31-1.29,1.51-1.62,2.45-2.16,1.22-.69,2.44-1.37,3.62-2.13,3.39-1.8,6.68-3.76,10-5.7,.67-.39,1.3-1.04,2.2-.56l.08,.09Z"/>
  <path class="cls-19" d="M390.75,581.52c-2.16-.16-3.85-1.5-5.51-2.6-2.92-1.94-6.15-3.29-9.06-5.19-1.27-.83-2.94-1.22-3.69-2.76,0,0,.09-.1,.09-.1,.82-.44,1.42,.11,2.04,.48,2.14,1.29,4.3,2.53,6.49,3.72,2.65,1.57,5.3,3.12,7.97,4.64,.69,.39,1.45,.72,1.78,1.54-.04,.09-.07,.18-.11,.27Z"/>
  <path class="cls-19" d="M301.11,183.35c1.6-1.94,3.94-2.75,6.03-3.93,3.58-2.02,7.12-4.1,10.66-6.2,.51-.3,1.02-.29,1.54-.35,.04,.09,.07,.17,.11,.26-.42,.95-1.39,1.24-2.17,1.76-4.61,2.69-9.25,5.32-13.86,8.01-.58,.34-1.12,.78-1.84,.77-.2-.04-.36-.15-.47-.32Z"/>
  <path class="cls-19" d="M587.14,208.24c-2.86-1.59-5.71-3.18-8.57-4.76-.64-.35-1.3-.65-1.95-.97-.51-.33-1.2-.34-1.6-.87l.03,.02c-1.56-.9-3.32-1.41-4.83-2.4-.59-.39-1.39-.61-1.36-1.55,0,0,.08-.09,.08-.09,2.72,.72,5.2,2.14,7.44,3.63,3.15,2.1,6.51,3.77,9.76,5.67,.58,.34,1.04,.59,1.01,1.32Z"/>
  <path class="cls-19" d="M515.79,546.22c-1.65,1.86-3.87,2.82-6,3.94-3.65,1.92-7.01,4.37-10.76,6.13-.49,.23-.95,.47-1.49,.48,0,0-.1-.11-.1-.11,.16-1.03,1.07-1.34,1.78-1.76,4.86-2.85,9.79-5.58,14.65-8.43,.52-.31,1.04-.64,1.7-.44,.08,.06,.15,.13,.23,.2Z"/>
  <path class="cls-19" d="M645.22,313.72c-.24,2.13-1.61,3.78-2.7,5.41-2.06,3.1-3.92,6.31-5.85,9.48-.31,.51-.61,.86-1.2,.92-.06-.07-.12-.15-.19-.22-.22-.89,.36-1.52,.76-2.2,1.79-3.05,3.87-5.92,5.6-9.01,1.18-1.45,1.65-3.42,3.32-4.51,.09,.04,.17,.08,.26,.11Z"/>
  <path class="cls-19" d="M355.86,151.77c1.28-1.74,3.25-2.67,5.06-3.47,3.09-1.37,5.54-3.76,8.68-5.01,.57-.23,1.09-.4,1.68-.44,.03,.09,.06,.18,.1,.28-.77,1.39-2.27,1.82-3.5,2.55-2.06,1.23-4.11,2.5-6.24,3.6-1.28,.62-2.45,1.43-3.68,2.13-.62,.35-1.22,.93-2.03,.44l-.07-.08Z"/>
  <path class="cls-19" d="M654.14,299.51c.45,1.69-1.04,2.48-1.73,3.61-2.03,3.34-4.19,6.59-6.28,9.89-.23,.37-.48,.63-.91,.7,0,0-.07-.06-.07-.06-.51-.85,.17-1.4,.54-2,1.58-2.6,3.14-5.21,4.82-7.74,1.12-1.5,1.75-3.37,3.36-4.51,.09,.04,.18,.07,.27,.11Z"/>
  <path class="cls-19" d="M407.75,121.77c-.4,.39-.8,.79-1.2,1.18-1.05,1.52-2.88,1.86-4.29,2.83-2.59,1.78-5.45,3.11-8.14,4.74-.46,.28-.95,.52-1.52,.34-.08-.06-.15-.13-.23-.19,.66-1.61,2.3-2.01,3.61-2.6,3.51-1.58,6.51-4,9.94-5.7,.61-.3,1.13-.65,1.83-.6Z"/>
  <path class="cls-30" d="M468.28,573.37c0,.14,.02,.27,.03,.41-2.45,1.46-4.91,2.93-7.36,4.39-.35,.64-1.11,.51-1.61,.87-1.93,1.28-3.96,2.39-6.07,3.36-.14-.04-.29-.08-.43-.12-.1-.77,.53-1.06,1.02-1.34,4.54-2.61,9.03-5.3,13.59-7.87,.32-.02,.61,.06,.83,.31Z"/>
  <path class="cls-19" d="M276.35,197.63c1.06-1.81,3.07-2.15,4.71-3.09,2.67-1.53,5.31-3.1,7.94-4.7,.51-.31,1.01-.28,1.53-.34,.04,.09,.07,.17,.11,.26-.41,.94-1.35,1.22-2.12,1.72-2.43,1.37-4.83,2.82-7.24,4.23-.15,.1-.32,.18-.48,.26-1.01,.39-1.85,1.09-2.81,1.57-.51,.2-1,.54-1.57,.18l-.07-.09Z"/>
  <path class="cls-53" d="M508.05,348.58c0,1.92-.02,3.84-.03,5.76-.6-1.97-.34-3.99-.36-5.99-.05-4.5-.03-9-.05-13.5,.26-1.91-.42-3.88,.43-5.74v19.47Z"/>
  <path class="cls-19" d="M219.15,230.48c4.11-2.8,8.3-5.48,12.96-7.3,0,0,.09,.1,.09,.1-.05,.81-.72,1.12-1.27,1.45-3.57,2.13-7.16,4.23-10.95,5.97-.3,.02-.6,.07-.82-.22Z"/>
  <path class="cls-19" d="M349.36,557.59c-2.34-.45-4.1-2.09-6.2-3.02-1.65-.74-3.32-1.45-4.34-3.07,0,0,.07-.08,.07-.08,.87-.51,1.48,.14,2.14,.51,1.2,.67,2.34,1.46,3.58,2.05,1.14,.67,2.28,1.36,3.44,2.01,.6,.34,1.38,.6,1.38,1.52l-.07,.08Z"/>
  <path class="cls-19" d="M680.52,257.31c-1.22,3.74-3.57,6.77-6.07,9.71-.16-.12-.27-.28-.34-.48-.06-.3-.02-.59,.08-.88,1.7-2.43,3.35-4.89,4.81-7.48,.3-.54,.67-1.04,1.41-.96l.11,.1Z"/>
  <path class="cls-19" d="M319.34,172.87c3.05-2.84,6.71-4.62,10.55-6.09,0,0,.07,.08,.07,.08,0,.83-.67,1.12-1.22,1.44-2.56,1.46-5.12,2.9-7.64,4.43-.5,.31-1.05,.64-1.68,.22l-.07-.08Z"/>
  <path class="cls-19" d="M381.83,136.75c2.33-2.48,5.58-3.48,8.37-5.22,.64-.4,1.28-1.01,2.18-.86,0,0,.08,.09,.08,.09-.27,1.22-1.41,1.54-2.29,2.07-.97,.59-1.99,1.11-2.92,1.77-1.81,.61-3.16,2.24-5.2,2.35-.07-.06-.15-.13-.22-.19Z"/>
  <path class="cls-18" d="M526.34,540.13c-3.13,2.69-6.7,4.63-10.55,6.09,0,0-.09-.1-.09-.1,.21-1.11,1.3-1.3,1.99-1.92,2.16-1.16,4.27-2.42,6.41-3.62,.63-.35,1.2-.86,2.02-.64,.07,.06,.15,.13,.22,.2Z"/>
  <path class="cls-19" d="M597.68,214.34c-2.81-1.51-5.62-3.03-8.43-4.54-.71-.52-1.42-1.05-2.13-1.57,3.26,.98,6.14,2.72,8.9,4.64,.57,.4,1.71,.34,1.66,1.47Z"/>
  <path class="cls-19" d="M633.48,468.36c.11-.04,.22-.08,.33-.12,.27,3.47-1.01,6.5-2.67,9.42-.42,.74-.9,1.53-1.95,1.52,.73-1.2,1.47-2.4,2.2-3.6,.49-1.63,1.22-3.18,1.48-4.88,.3-.76-.09-1.69,.6-2.35Z"/>
  <path class="cls-18" d="M622.5,484.54c-.3,1.09-1.37,1.45-2.15,1.89-2.2,1.24-4.31,2.68-6.78,3.38,0,0-.09-.11-.09-.11-.07-.56,.28-.9,.69-1.13,2.35-1.3,4.61-2.76,6.94-4.08,.35-.2,.75-.3,1.16-.15,.07,.07,.15,.13,.22,.2Z"/>
  <path class="cls-19" d="M623.28,254.86c1.2-1,2.4-2.01,3.61-3.01-2.12,2.82-4.62,5.27-7.4,7.44,.82-1.86,2.5-2.98,3.79-4.42Z"/>
  <path class="cls-19" d="M665.51,281.26c-.39,2.28-1.71,4.14-3.08,5.84-.71,.88-1,2.18-2.19,2.68-.06-.07-.13-.14-.19-.2-.19-.59,.1-1.07,.35-1.57,.55-.81,1.13-1.6,1.59-2.48,1.06-1.48,1.7-3.28,3.27-4.39,.09,.04,.17,.07,.26,.11Z"/>
  <path class="cls-19" d="M670.77,273.13c-.75,2.57-2.57,4.56-3.76,6.9-.27,.54-.77,1.11-1.5,1.23,0,0-.08-.07-.08-.07-.34-.47-.14-.92,.13-1.31,1.45-2.12,2.5-4.48,4.12-6.49,.23-.21,.5-.34,.81-.37,.09,.04,.19,.08,.28,.11Z"/>
  <path class="cls-19" d="M401.3,587.61c-2.86-.51-4.95-2.63-7.54-3.7-.14-.06-.11-.5-.17-.76,.07-.07,.15-.13,.22-.2,2.9,.91,5.55,2.21,7.57,4.57l-.08,.1Z"/>
  <path class="cls-19" d="M660.23,289.78c-.88,2.81-2.23,5.33-4.47,7.3-.06-.08-.13-.15-.19-.23,.84-2.82,2.15-5.34,4.56-7.16l.1,.09Z"/>
  <path class="cls-19" d="M374.12,141.22c.48-1.56,2.03-1.68,3.18-2.3,1.48-.79,2.71-2.1,4.53-2.17,0,0,.08,.09,.08,.09,.03,.55-.36,.86-.76,1.08-2.23,1.24-4.19,3-6.81,3.48-.08-.06-.15-.13-.23-.19Z"/>
  <path class="cls-43" d="M577.81,300.6c1.94-2.75,4.39-5,6.9-7.2,.01,.11,.02,.22,0,.33-2.15,2.44-4.47,4.71-6.91,6.87Z"/>
  <path class="cls-19" d="M605.4,218.78c-2.7-1.28-5.3-2.73-7.74-4.47,2.43,.15,4.1,1.93,6.11,2.97,.53,.27,1.67,.4,1.63,1.5Z"/>
  <path class="cls-18" d="M534.05,535.67c-2.23,2.07-4.74,3.67-7.71,4.46,0,0-.09-.1-.09-.1,0-.64,.48-.94,.92-1.2,1.77-1.04,3.56-2.05,5.32-3.12,.45-.27,.96-.5,1.49-.12l.07,.08Z"/>
  <path class="cls-19" d="M434.6,120.09c-2.86-1.65-5.86-2.99-9.01-3.97,3.4-.16,6.03,1.85,8.88,3.22,.13,.06,.09,.49,.14,.75Z"/>
  <path class="cls-22" d="M448.35,127.99c.4,.23,.81,.46,1.21,.7,.53,.31,1.27,.22,1.65,.83v-.02c.79,.25,1.48,.65,2.03,1.3,.41,.24,.81,.47,1.22,.71,.16,.18,.15,.36-.03,.52-.79,.33-1.44-.1-2.06-.46-1.84-1.07-3.7-2.11-5.54-3.17-.68-.39-1.45-.77-1.32-1.78,.6-.38,.96-.03,1.27,.43h0c.49,.38,1.32,.18,1.58,.94Z"/>
  <path class="cls-19" d="M290.53,189.5c2.24-1.78,4.53-3.5,7.28-4.44,.27,.6-.27,.85-.54,1.22-1.52,1.23-3.29,2.03-4.96,3.01-.51,.3-1.09,.54-1.72,.28l-.07-.07Z"/>
  <path class="cls-18" d="M624.52,482.95c1.61-.6,2.62-2.02,4.04-2.88,.15,.89-.47,1.46-1.05,1.8-1.63,.95-2.96,2.48-5,2.67,0,0-.07-.09-.07-.09,.27-1.09,1.07-1.45,2.09-1.51Z"/>
  <path class="cls-19" d="M611.8,266.99c.25-1.34,1.17-1.42,1.94-2.32,.73-.86,1.88-2.07,2.64-2.91,.53-.34,1.05-.68,1.58-1.03-1.67,2.46-3.83,4.44-6.16,6.25Z"/>
  <path class="cls-19" d="M455.73,132.29c2.53,.56,4.66,1.84,6.47,3.66,0,0-.07,.1-.07,.1-1.2,.4-1.98-.48-2.89-.94-1.15-.93-2.83-1.11-3.61-2.56,.04-.09,.07-.17,.11-.26Z"/>
  <path class="cls-33" d="M531.98,176.1c2.2,1.33,4.55,2.4,6.56,4.02-.07,.07-.13,.15-.2,.23-2.74-.6-5.16-1.75-6.86-4.1,.12-.19,.29-.23,.5-.14Z"/>
  <path class="cls-31" d="M212.27,243.52c-.2-1.39-.03-2.75,.4-4.08,.2-.8,.17-1.73,1.18-2.08,.17,.14,.28,.31,.33,.53-.09,1.61-.58,3.08-1.52,4.39-.01,.38-.02,.76-.04,1.14-.07,.22-.19,.25-.36,.1Z"/>
  <path class="cls-19" d="M446.77,127.05c-.41-.13-.81-.26-1.22-.4-1.29,.24-2.09-.66-3-1.3-.32-.32-.79-.55-.71-1.13,1.99,.33,3.52,1.47,4.93,2.83Z"/>
  <path class="cls-27" d="M297.08,185.91c.25-.28,.49-.56,.74-.84,1.06-.65,2.01-1.49,3.29-1.72,.13,.03,.27,.06,.4,.09,.2,.65-.37,.84-.7,1.18-1.23,.48-2.09,2-3.73,1.29Z"/>
  <path class="cls-19" d="M633.79,333.27c-.12,.12-.24,.24-.36,.36-.2,.1-.39,.07-.55-.09-.24-.37-.24-.76-.11-1.17,.82-1.02,.91-2.69,2.61-2.92,0,0,.1,.09,.1,.09-.27,1.38-1.18,2.46-1.68,3.73Z"/>
  <path class="cls-51" d="M475.83,276.82c1.62,.67,2.52,1.95,3.01,3.58-1.16-1.06-2.17-2.25-3.01-3.58Z"/>
  <path class="cls-19" d="M413.95,118.14c-1.13,.85-2.23,1.76-3.69,2,.78-1.5,2.14-1.92,3.69-2Z"/>
  <path class="cls-33" d="M542.49,181.84c.01,.27,.03,.53,.04,.8-1.24,.61-1.94-.51-2.87-.88-.54-.38-1.26-.61-1.27-1.45,.05-.06,.1-.12,.15-.18,1.44,.28,2.4,1.66,3.94,1.72Z"/>
  <path class="cls-19" d="M531.98,176.1c-.15,.03-.31,.05-.46,.08-1.2,.46-1.85-.31-2.48-1.12-.06-.2-.03-.39,.11-.55,1.26-.04,2.21,.48,2.83,1.58Z"/>
  <path class="cls-19" d="M216.65,233.71c-.38,.29-.77,.58-1.15,.86,.44-1.27,.72-2.67,2.43-2.85,.11,1.01-.9,1.29-1.28,1.98Z"/>
  <path class="cls-19" d="M437.47,122.15c0-.13-.02-.25-.07-.37,1.37,.04,2.56,.43,3.24,1.75-.25,.18-.53,.22-.83,.18-.95-.27-1.8-.68-2.34-1.56Z"/>
  <path class="cls-19" d="M673.6,268.71c-.29,1.31-1.11,2.28-2.02,3.2-.06-.07-.12-.14-.18-.21-.18-.59,.12-1.08,.34-1.58,.39-.61,.54-1.43,1.39-1.65,.2,.01,.35,.09,.47,.25Z"/>
  <path class="cls-19" d="M627.62,251.17c.32-1.23,1.56-1.74,2.17-2.75,.26-.13,.53-.25,.79-.38-.56,1.45-1.69,2.36-2.96,3.13Z"/>
  <path class="cls-85" d="M468.28,271.43c.01-.59,0-1.18,.04-1.77,.04-.5,.33-.9,.85-.93,.81-.05,.68,.61,.74,1.11-.53-.38-1.07-.81-1.27,.29-.08,.44,.12,.97-.36,1.3Z"/>
  <path class="cls-28" d="M213.92,237.92c-.03-.19-.05-.38-.08-.56-.04-1.04,.22-1.92,1.28-2.37,.22,.77-.39,1.32-.51,2,.04,.51-.1,.89-.69,.94Z"/>
  <path class="cls-19" d="M419.69,116.12c-1.13,.77-2.53,.7-3.75,1.19,.92-1.44,2.44-.96,3.75-1.19Z"/>
  <path class="cls-19" d="M655.76,297.08c-.35,.94-.42,2.06-1.62,2.44,0,0-.09-.08-.09-.08-.33-1.38,.25-2.17,1.6-2.46l.11,.1Z"/>
  <path class="cls-19" d="M524.71,172.06c1.17,.11,2.11,.62,2.81,1.57-.12,.16-.27,.26-.47,.3-1.09-.21-2.04-.6-2.43-1.77l.09-.1Z"/>
  <path class="cls-19" d="M371.28,142.84c.67-1.02,1.65-1.51,2.84-1.63,0,0,.08,.09,.08,.09-.52,1.27-1.41,1.92-2.83,1.63l-.08-.09Z"/>
  <path class="cls-19" d="M393.58,583.15c-1.17-.15-2.16-.62-2.84-1.63,0,0,.08-.09,.08-.09,1.43-.3,2.32,.34,2.83,1.63l-.08,.09Z"/>
  <path class="cls-23" d="M439.88,123.4c.26,.04,.51,.09,.77,.13,.4,.23,.8,.46,1.19,.69,.29,.27,.57,.53,.86,.8-1.55,.51-2.48-.05-2.83-1.63Z"/>
  <path class="cls-16" d="M216.65,233.71c.01-.93,1.01-1.22,1.28-1.98,.14-.1,.28-.21,.42-.31,.18,.04,.31,.15,.4,.31-.56,.81-1.19,1.54-2.1,1.98Z"/>
  <path class="cls-25" d="M692.3,235.86c.38-.05,.81-.18,1.04,.27,.07,.14,.06,.43-.03,.54-.37,.45-.69,0-1.02-.12,0-.23,0-.46,.01-.68Z"/>
  <path class="cls-26" d="M218.75,231.73c-.13-.11-.27-.21-.4-.32,.08-.47,.43-.71,.8-.93,.28,.01,.55,.02,.83,.04,.13,.09,.17,.17,.13,.26-.04,.09-.08,.14-.12,.14-.41,.27-.83,.54-1.24,.81Z"/>
  <path class="cls-34" d="M673.6,268.71c-.15-.03-.29-.05-.44-.08-.39-1.15-.02-1.86,1.21-2.05,.03,.15,.05,.3,.08,.45-.28,.56-.57,1.12-.85,1.68Z"/>
  <path class="cls-19" d="M453.24,130.8c-.79-.26-1.43-.74-2.03-1.3,1.03-.12,1.7,.33,2.03,1.3Z"/>
  <path class="cls-19" d="M415.95,117.31c-.67,.29-1.34,.57-2.01,.86,.2-1.39,1.3-.67,2.01-.86Z"/>
  <path class="cls-85" d="M469.92,269.86c1.01,.17,1.59,.72,1.55,1.79-.52-.6-1.04-1.2-1.55-1.79Z"/>
  <path class="cls-32" d="M527.09,173.72c.14-.03,.29-.06,.43-.1,.54,.29,1.09,.59,1.63,.88,.01,.13,.01,.27,0,.4-1.16,.43-1.78-.1-2.06-1.19Z"/>
  <path class="cls-19" d="M448.35,127.99c-.53-.31-1.06-.63-1.58-.94,.67,.07,1.6-.29,1.58,.94Z"/>
  <path class="cls-19" d="M459.34,579.05c.43-.48,1.02-.68,1.61-.87-.06,1.17-.96,.79-1.61,.87Z"/>
  <path class="cls-19" d="M690.97,238.57c-.25,.16-.49,.32-.74,.48-.1-.9,.29-1.31,1.2-1.25,0,0,.06,.07,.06,.07,.1,.44-.15,.61-.52,.7Z"/>
  <path class="cls-19" d="M451.22,129.52c-.62-.14-1.19-.39-1.65-.83,.66,.07,1.55-.34,1.65,.83Z"/>
  <path class="cls-19" d="M665.86,263.37c-.2,.59-.6,.99-1.19,1.19,.04-.75,.44-1.15,1.19-1.19Z"/>
  <path class="cls-19" d="M650.03,279.2c-.2,.59-.6,.98-1.19,1.19,.04-.75,.44-1.15,1.19-1.19Z"/>
  <path class="cls-19" d="M655.31,273.92c-.2,.59-.6,.98-1.19,1.19,.04-.75,.44-1.15,1.19-1.19Z"/>
  <path class="cls-19" d="M660.58,268.65c-.21,.59-.6,.99-1.19,1.19,.04-.75,.44-1.15,1.19-1.19Z"/>
  <path class="cls-19" d="M454.51,131.89c.01-.13,0-.25-.05-.37,.6-.03,1.18-.02,1.27,.78,0,0-.07,.08-.07,.08-.58,.32-.93,.08-1.15-.48Z"/>
  <path class="cls-19" d="M671.58,271.91c0,.58-.01,1.16-.81,1.22,0,0-.07-.06-.07-.06-.34-.79-.01-1.16,.78-1.25l.1,.08Z"/>
  <path class="cls-19" d="M686.15,243.09c-.2,.59-.6,.99-1.19,1.19,.04-.75,.44-1.15,1.19-1.19Z"/>
  <path class="cls-12" d="M238.22,493.48c-.51-.3-1.02-.6-1.53-.89-2.08-1.16-4.21-2.27-6.13-3.69l.02,.03c-1.47-.61-2.91-1.27-4.13-2.33-.31-.49-.78-.96-.16-1.55,.8-.61,1.74-.71,2.69-.76,.95-.05,1.89-.03,2.84-.03,127.32,0,254.65,0,381.97,0,1.28,0,2.57-.11,3.84,.17,.55,.12,1.08,.36,1.19,.96,.12,.63-.41,.99-.87,1.23-5.08,2.63-9.8,5.9-14.97,8.38-1.26,.35-2.54,.31-3.83,.31-117.26,0-234.52,0-351.78,0-1.07,0-2.13-.02-3.09-.16,2.88,1.96,6.47,2.91,8.97,5.62,.19,1.49-.65,.95-1.3,.62-2.39-1.2-4.68-2.59-6.99-3.93-1.32-.76-2.77-1.34-3.86-2.48l.02,.02c-1.07-.31-1.93-1.03-2.9-1.53Z"/>
  <path class="cls-42" d="M355.89,370.8c-.14,.06-.28,.12-.42,.17-3.78,.28-7.56,.09-11.34,.11-6.49,.04-12.97,.01-19.46,0-6.15,0-12.3-.12-18.44,.02-16.41,.39-32.81,.06-49.22,.18-2.36,.02-2.33,.02-2.37,2.32-.03,1.68,.18,3.37-.13,5.05-.79,.69-1.77,.59-2.7,.59-12.15,.02-24.29,.02-36.44,0-.94,0-1.9,.06-2.74-.51-.5-.54-.56-1.22-.52-1.88,.2-2.97-.55-5.99,.46-8.92,.89-.65,1.93-.55,2.93-.55,45.83-.01,91.65-.01,137.48,0,.94,0,1.9-.07,2.78,.41,.81,.96,.69,1.96,.14,2.99Z"/>
  <path class="cls-49" d="M212.69,368.06c0,3.52,0,7.03,0,10.55,.95,1.32,.53,2.85,.59,4.29,.05,1.4,.06,2.81-.03,4.22,.07,3.25,.08,6.49,0,9.74,.07,3.51,.08,7.02,0,10.52,.06,2.98,.07,5.95,0,8.93,.06,2.58,.07,5.16,0,7.75,.07,3.24,.08,6.48,0,9.71,.07,2.98,.07,5.96,0,8.94,.07,3.5,.08,7,0,10.5,.06,2.57,.07,5.14,0,7.72-.09,1.65,.44,3.37-.55,4.92,0,1.63,.02,3.27,.03,4.9,.05,.36-.1,.47-.44,.36-.48-1.62-.66-3.26-.66-4.96,.02-34.66,0-69.32,.05-103.98,0-.99-.62-2.34,.94-2.89,.55,1.38,1.66,.38,2.49,.6,.73-.23,1.48-.12,2.21-.12,13.04,0,26.09,0,39.13-.01,.73,0,1.49,.15,2.2-.16,7.88,0,15.75,0,23.63-.02,1.55,0,3.1-.06,4.64-.09,.73-.24,1.48-.12,2.21-.12,14.8,0,29.6,0,44.41-.01,.73,0,1.49,.15,2.2-.16,6.83,0,13.65-.02,20.48-.03,.41,3.91,.47,7.82-.03,11.73-.11,0-.21-.03-.31-.07,0-.91-.01-1.83-.02-2.74-.64-.72-.62-1.62-.65-2.49-.03-1.2-.66-1.68-1.79-1.7-.74-.01-1.49-.02-2.23-.02-44.61,0-89.23,0-133.84,0-.34,0-.68,0-1.01,0-2.6,0-3.21,.19-3.09,2.72,.03,.55-.19,1.06-.56,1.49Z"/>
  <path class="cls-72" d="M293.87,446.37c0-3.52,0-7.03-.01-10.55,.76-.73,1.74-.65,2.67-.65,10.58-.02,21.15,0,31.73-.01,1.03,0,2.02,.12,2.92,.65,3.63,3.4,7.15,6.91,10.55,10.55-.75,.76-1.74,.66-2.67,.66-14.17,.02-28.34,.02-42.52,0-.93,0-1.91,.09-2.68-.65Z"/>
  <path class="cls-82" d="M367.4,419.72c-2.93-1.88-5.08-4.59-7.45-7.05-.44-.99,.22-1.32,.96-1.61,.65-.26,1.33-.18,2-.18,7.14,0,14.29-.13,21.42,.03,7.88,.18,15.72-.78,23.59-.49,1.06,.04,2.17-.16,3.13,.53,.41,3.03,.25,6.06,.08,9.1-.79,.69-1.77,.59-2.7,.59-12.61,.01-25.22,.02-37.84,0-1.14,0-2.32,.05-3.19-.92Z"/>
  <path class="cls-67" d="M293.87,446.37c15.95,0,31.91,0,47.86-.01,2.42,2.18,4.71,4.48,6.9,6.9-18.25,0-36.5,.01-54.75,.02,0-2.3,0-4.6,0-6.9Z"/>
  <path class="cls-74" d="M331.18,435.8c-12.44,0-24.88,.01-37.32,.02-.03-2.98-.05-5.95-.08-8.93,.78-.68,1.74-.65,2.69-.65,7.62-.01,15.24,0,22.86,0,1.03,0,2.02,.12,2.92,.65,3.09,2.86,6.07,5.83,8.93,8.93Z"/>
  <path class="cls-79" d="M322.25,426.88c-9.49,0-18.98,.01-28.47,.02-.18-1.57-.19-3.15-.02-4.72-.33-1.33-.12-2.68-.14-4.02-.03-2.17,.18-2.39,2.41-2.45,3.03-.07,6.07-.02,9.11-.02,1.28,0,2.56,.01,3.84,0,.97,0,1.88,.17,2.72,.65,3.63,3.4,7.15,6.92,10.55,10.55Z"/>
  <path class="cls-49" d="M411.07,355.48c0,4.19,0,8.38,0,12.57-.09,.09-.18,.17-.27,.26-2.58,.76-5.23,.3-7.84,.36-6.3,.15-5.37-.79-5.46,5.53-.04,2.56,.05,5.13-.04,7.7,.04,5.46-.72,10.89-.44,16.35,.04,.74,0,1.48,.04,2.22,.09,2.52-.07,5.05-.07,7.57,0,.68,.14,1.53-.85,1.79-.05-.67-.1-1.34-.15-2.02-.32-3.9-.09-7.8-.13-11.7-.04-4.11-.02-8.22,0-12.33,0-.64-.26-1.35,.27-1.93,.54-.65,.31-1.42,.31-2.13,.02-5.11,.02-10.21,.02-15.32,.45-2.54,.14-5.11,.17-7.66,.01-1.19,.45-1.8,1.6-1.83,3.85-.12,7.7-.14,11.55,.02,.48,.02,.91,.24,1.28,.56Z"/>
  <path class="cls-107" d="M396.15,409.83c.71-3.08,.11-6.21,.32-9.31,.45-2.81,.14-5.65,.17-8.47,.01-1.19,.44-1.8,1.6-1.84,3.92-.12,7.83-.15,11.75,.02,.41,.02,.79,.18,1.1,.46,.36,4.47,.15,8.94,.12,13.4-.72,.82-1.71,.68-2.63,.69-2.62,.04-5.25,0-7.87,.02q-3.12,0-3.21,3.07c-.02,.74,0,1.49-.35,2.17-.23,.44-.56,.76-1.13,.61,.05-.27,.1-.55,.15-.82Z"/>
  <path class="cls-19" d="M212.61,359.28c-.7,.51-.35,1.25-.35,1.88-.02,35.41-.03,70.82-.03,106.23,0,1.27-.14,2.57,.38,3.79,.56,.78,.98,1.6,.64,2.61-.07,.07-.15,.15-.22,.22-.59-.09-1.21-.41-1.11-.97,.36-2.01-.89-3.73-.89-5.66,0-35.53,0-71.06,.01-106.59,0-.66-.16-1.36,.24-1.98,.22-.33,.48-.76,.92-.68,.69,.13,.36,.74,.42,1.16Z"/>
  <path class="cls-108" d="M367.4,419.72c1.18,.3,2.38,.28,3.58,.28,13.36,0,26.72,0,40.09,0,.42,.47,.02,1.11,.32,1.6,.33,1.29-.51,1.23-1.37,1.23-3.84-.02-7.68,0-11.52,0-8.69,0-17.38-.08-26.06,.05-2.54,.04-3.82-1.35-5.03-3.15Z"/>
  <path class="cls-83" d="M396.01,410.65c1.61-1,.74-2.58,.82-3.88,.15-2.59,.04-2.6,2.69-2.6,3.85,0,7.7,0,11.54,0,.33,2.3,.33,4.6,0,6.9-15.95,0-31.9,0-47.85,0-1.32,0-2.8-.23-3.26,1.59-.74-.44-1.34-1.04-1.99-2.02h38.05Z"/>
  <path class="cls-81" d="M311.71,416.33c-5.36,0-10.73,.05-16.09-.01-1.41-.02-1.93,.42-1.83,1.84,.09,1.33,0,2.68-.03,4.02-.1-.09-.2-.18-.3-.27,0-3.36,.06-6.72,0-10.08-.02-1.11,.24-1.56,1.43-1.54,3.5,.06,7,.02,10.5,.03,.36,0,.78-.18,1.07,.29,1.38,2.25,3.68,3.65,5.24,5.73Z"/>
  <path class="cls-39" d="M254.41,378.61c.01-2.09,.06-4.19,.03-6.28-.02-1.03,.34-1.54,1.41-1.43,.07,0,.13,0,.2,0,22.9,.02,45.8,.03,68.7,.05,0,.17-.09,.27-.26,.31-6.72-.2-13.43,.01-20.14,.12-.73,.24-1.48,.12-2.21,.12-11.02,0-22.04,0-33.05,.01-.73,0-1.49-.15-2.2,.16-3.64,0-7.28,0-10.92-.02-.9,0-1.15,.38-1.15,1.22,.02,6.21,0,12.41,0,18.62-.09,.08-.19,.16-.29,.23-1.15-1.39-.56-3.03-.66-4.58-.09-2.08-.04-4.16-.03-6.24,0-.81,.02-1.62,.59-2.29Z"/>
  <path class="cls-19" d="M396.14,381.85c-.02,7.58-.04,15.16-.07,22.74,0,1.07-.05,2.14-.07,3.22-.4-.36-.35-.85-.35-1.32,.01-26.25,.03-52.5,.04-78.75,.54,2.47,.23,4.98,.24,7.46,.07,14.94,.08,29.89,.11,44.83,0,.61,.06,1.21,.09,1.82Z"/>
  <path class="cls-49" d="M411.07,411.07c0-2.3,0-4.6,0-6.9,0-4.46,0-8.93,0-13.39-.78-.91-.63-2.03-.63-3.09,0-1.95-.06-3.91,.03-5.86-.11-3.83-.04-7.66-.04-11.49,0-.81,.04-1.62,.63-2.28,0,0,0,0,0,0,.13,0,.25,0,.38,0,.01,9.16,.03,18.32,.04,27.48,.01,8.15,.02,16.3,.03,24.46-.05,.53-.1,1.07-.15,1.6-.48-.46-.26-1.06-.32-1.6,0-2.98,0-5.95,0-8.93Z"/>
  <path class="cls-19" d="M241.1,494.99c3.79,2.13,7.58,4.26,11.38,6.37,.23,.13,.49,.18,.74,.27,2.57,.59,4.49,2.46,6.83,3.52,.78,.35,1.52,.81,2.23,1.3,1.92,1.3,4.09,2.22,5.92,3.69,.11,.16,.17,.34,.18,.53-.05,.08-.1,.16-.15,.24-2.91-.99-5.49-2.68-8.04-4.28-2.46-1.54-5.07-2.76-7.55-4.23-3.59-2.13-7.18-4.24-10.78-6.35-.43-.25-.8-.5-.74-1.07Z"/>
  <path class="cls-19" d="M335.75,359.17c-1.73,.49-3.49,.21-5.24,.22-14.53,.05-29.06,.06-43.59,.08,.37-.39,.85-.34,1.32-.34,15.83,.01,31.67,.03,47.5,.04Z"/>
  <path class="cls-19" d="M258.65,359.58c-3.22,.47-6.46,.22-9.69,.24-11.29,.05-22.57,.04-33.86,.06,.37-.39,.86-.33,1.32-.33,14.07,.01,28.15,.03,42.22,.04Z"/>
  <path class="cls-19" d="M266.87,371.67c3.36-.49,6.73-.23,10.1-.26,9.12-.06,18.25-.03,27.37-.04-.37,.39-.85,.34-1.32,.34-12.05-.01-24.1-.03-36.15-.04Z"/>
  <path class="cls-19" d="M324.49,371.26c.09-.1,.18-.2,.26-.31,9.09-.01,18.19-.02,27.28-.03,1.14,0,2.29,.04,3.43,.05-.37,.38-.86,.33-1.32,.33-9.89-.02-19.77-.03-29.66-.05Z"/>
  <path class="cls-19" d="M285.26,520.65c-2.09-.33-3.81-1.59-5.51-2.62-2.94-1.79-5.92-3.5-8.95-5.13-.34-.18-.48-.44-.54-.78,.07-.07,.14-.14,.22-.21,.28-.13,.57-.15,.87-.09,4.41,2.3,8.67,4.86,12.92,7.42,.45,.27,.92,.58,1.09,1.14-.03,.09-.07,.18-.1,.27Z"/>
  <path class="cls-19" d="M295.8,526.74c-3.16-1.03-5.87-2.95-8.76-4.49-.15-.08-.12-.5-.17-.77,.07-.07,.15-.13,.22-.2,.5-.16,.9,.09,1.32,.3,2.08,1.06,4.03,2.37,6.06,3.52,.6,.34,1.36,.65,1.42,1.54l-.09,.1Z"/>
  <path class="cls-19" d="M222.75,484.56c-3.03-1.15-5.85-2.57-7.24-5.77,.39-.18,.72,0,1.04,.17,.77,.75,1.51,1.52,2.43,2.1,1.11,1.11,2.54,1.79,3.75,2.77,.13,.14,.2,.31,.2,.51-.06,.08-.11,.15-.17,.23Z"/>
  <path class="cls-19" d="M356.2,370.88c.01-3.91,.02-7.82,.03-11.73,.65,.41,.46,1.06,.46,1.64,.01,2.82,.02,5.65,0,8.47,0,.58,.19,1.24-.5,1.62Z"/>
  <path class="cls-19" d="M230.55,488.9c2.16,1.04,4.33,2.06,6.13,3.69-2.55-.39-4.37-1.99-6.13-3.69Z"/>
  <path class="cls-19" d="M226.85,486.55c1.24,.79,2.48,1.59,3.72,2.38-1.81-.23-3.43-.8-4.55-2.36,.05-.06,.11-.12,.16-.19,.26-.07,.48-.03,.67,.17Z"/>
  <path class="cls-19" d="M215.17,478.4c-1.22-1.22-2.36-2.48-2.15-4.4,0,0,.09-.08,.09-.08,1.25,.9,1.87,2.2,2.3,3.63,.02,.31-.03,.61-.25,.85Z"/>
  <path class="cls-19" d="M226.02,486.56c-1.5,0-2.48-.84-3.27-2,0,0,.04-.04,.04-.04,1.58-.14,2.63,.6,3.28,1.98l-.06,.07Z"/>
  <path class="cls-19" d="M238.22,493.48c1.17,.13,2.05,.8,2.9,1.53-1.25,.03-2.18-.56-2.9-1.53Z"/>
  <path class="cls-19" d="M270.25,512.12c-1,.14-1.68-.25-2.03-1.2,0,0,.04-.05,.04-.05,1.13-.4,1.74,.13,2.07,1.16l-.08,.09Z"/>
  <path class="cls-19" d="M286.87,521.48c-.62-.12-1.45,.18-1.61-.83,0,0,.09-.1,.09-.1,.83-.26,1.43-.12,1.58,.86l-.06,.07Z"/>
  <path class="cls-21" d="M215.17,478.4c-.03-.26-.06-.51-.09-.77,.16-.14,.34-.18,.54-.12,.58,.42,1.19,.83,.72,1.7-.28-.14-.55-.28-.83-.42-.11-.13-.22-.26-.34-.39Z"/>
  <path class="cls-11" d="M216.34,479.21c.02-.69-.69-.97-.86-1.55-.16-.99-1.51-1.65-.79-2.89,.07-.57,.4-.81,.96-.81,.61,0,1.22,0,1.83,0,136.76,0,273.52,0,410.28,.02,1.02,0,2.46-.6,2.96,.58,.46,1.09-.49,2.16-1.3,2.98-.82,.84-1.13,2.2-2.49,2.5-.63,.34-1.31,.27-1.99,.27-133.81-.03-267.62,0-401.43,0-1.66,0-3.42-.36-4.79,1.02-1.06-.41-1.69-1.31-2.38-2.13Z"/>
  <path class="cls-14" d="M218.72,481.34c-.31-1.11,.15-1.66,1.27-1.69,.54-.01,1.08,0,1.62,0,134.12,0,268.24,0,402.36,0,1,0,2.04-.18,2.97,.4-.05,1.6-2.31,1.36-2.42,2.91-.7,.5-1.39,1-2.09,1.51-3.06,1.62-6.12,3.25-8.95,5.25-3.54,1.61-6.75,3.78-10.14,5.66-.64,.35-1.3,.65-1.95,.97-.71-1.75,.99-1.2,1.6-1.68,5.16-2.44,9.76-5.89,14.92-8.32,.34-.16,.73-.47,.6-.94-.1-.35-.48-.45-.83-.46-.54-.02-1.08-.02-1.62-.02-128.77,0-257.55,0-386.32,0-1.29,0-2.56-.02-3.69,.75-1.3-.08-2.15-1.12-3.3-1.52-1.48-.73-2.98-1.45-4.03-2.8Z"/>
  <path class="cls-13" d="M293.87,467.06c0-1.62,0-3.25,0-4.87,112.78,0,225.56,0,338.33,0v4.87c-112.78,0-225.56,0-338.33,0Z"/>
  <path class="cls-10" d="M212.7,465.85c0-1.62,0-3.25,0-4.87,.77-.73,1.75-.65,2.68-.65,20.13-.02,40.26-.01,60.38-.01,1.1,0,2.14,.23,3.16,.62,3.01,1.49,5.95,3.09,8.77,4.93-25,0-49.99,0-74.99,0Z"/>
  <path class="cls-73" d="M214.68,474.77c-.24,1.1,1.09,1.77,.79,2.89,0,0-.2-.04-.2-.04,0,0-.2,.01-.2,.01-.65-1.24-1.31-2.47-1.96-3.71-.17-.92-.34-1.83-.5-2.75,.04-.14,.07-.28,.11-.42,.25,.26,.5,.52,.74,.78,.44,.46-.06,1.16,.41,1.62-.04,.7,.07,1.32,.81,1.62Z"/>
  <path class="cls-29" d="M633.06,470.77c-.29,1.7-.61,3.38-1.66,4.81-.29-1.46,1.08-2.57,.83-4.02,.76-.85-.04-2.1,.75-2.94,.39,.7,.28,1.42,.08,2.14Z"/>
  <path class="cls-10" d="M213.87,473.15c-.59-.43-.35-1.06-.41-1.62,.88,.35,.21,1.1,.41,1.62Z"/>
  <path class="cls-98" d="M213.92,237.92c.23-.31,.46-.62,.69-.94,1.21-1.51,2.92-1.2,4.53-1.2,135.8,0,271.6,0,407.4,0,3.35,0,3.9,.43,4.88,3.69,.17,.55,.5,1.06,.76,1.59-138.6,0-277.2,0-415.8-.08-1.58,0-2.41,1.11-3.72,1.3,.14-1.53,.8-2.91,1.26-4.36Z"/>
  <path class="cls-98" d="M212.27,243.52c.13,0,.25-.04,.36-.1,.02,1.51,.04,3.03,.06,4.54,0,2.16,0,4.33,0,6.49,0,2.3,0,4.6,0,6.9,0,2.3,0,4.6,0,6.9,0,1.76,0,3.52,0,5.27,1.14,2.36,.42,4.86,.56,7.29,.07,3.1,.07,6.2,0,9.29,.06,2.19,.06,4.38,0,6.57,.07,3.51,.08,7.02,0,10.53,.1,2.75,.04,5.51,.03,8.26,0,.81-.02,1.62-.6,2.29,0,.78,0,1.56,0,2.34-.73-.28-.44-.91-.44-1.39,0-25.06,.01-50.12,.02-75.17Z"/>
  <path class="cls-97" d="M219.99,230.92c.01-.13,0-.27,0-.4,4.07-2.41,8.14-4.83,12.21-7.24,.49-.17,.98-.34,1.47-.51,1.08-.35,2.05-.89,2.9-1.65l-.02,.03c1.68-1.13,3.48-1.15,5.39-.69,.84,.2,1.75,.06,2.63,.06,118.87,0,237.74,0,356.62,.01,1.69,0,3.37-.23,5.06-.16,.42-.01,.84-.02,1.26-.03,0,0-.02,0-.02,0,.75,.9,1.84,1.2,2.85,1.64v-.02c2.39,1.78,5.05,3.13,7.7,4.49,3.83,1.94,7.72,3.79,10.63,7.1,.48,.54,1.09,1.02,1.22,1.81-1.72-.89-2.7-2.6-4.22-3.73-2.31-1.73-4.67-2.78-7.7-2.78-130,.05-259.99,.05-389.99,.02-2.42,0-4.69,.14-6.64,1.7-.4,.32-.86,.36-1.34,.36Z"/>
  <path class="cls-88" d="M276.42,197.72c.51-.17,1.01-.33,1.52-.5,1.04-.41,2.01-.92,2.86-1.65l-.02,.02c.42-.22,.9-.25,1.3-.54,1.29-.93,2.59-1.59,4.26-.7,.74,.4,1.73,.2,2.61,.2,89.28,0,178.56,0,267.84,0,1.21,0,2.45,.09,3.58-.47,.73-.36,1.23-.09,1.84,.3,1.25,.78,2.51,1.55,3.92,2.04,.91,.44,1.82,.87,2.73,1.31,1.84,1.66,4.4,2.21,6.19,3.95-2.05-.8-4.18-.36-6.28-.36-97.35-.01-194.71-.01-292.06,0-2.16,0-4.36-.44-6.48,.35,1.89-1.59,4.35-2.29,6.2-3.94Z"/>
  <path class="cls-88" d="M268.19,202.9c.51-.71,1.27-1.02,2.07-1.26-.38,.92-1.19,1.15-2.07,1.26Z"/>
  <path class="cls-88" d="M575.01,201.64c.67,.04,1.16,.42,1.6,.87-.71,.03-1.35-.06-1.6-.87Z"/>
  <path class="cls-61" d="M212.69,280.82c0-2.43,0-4.87,0-7.3,66.13,0,132.25,0,198.38,0,.32,2.48,.35,4.96-.03,7.44-1.16,.78-2.49,.52-3.75,.52-28.27,.02-56.53,.01-84.8,.01-35.3,0-70.6,0-105.9-.01-1.32,0-2.73,.32-3.9-.65Z"/>
  <path class="cls-50" d="M434.6,291.78c-3.57-3.32-6.98-6.79-10.19-10.46,.01-.97,.79-.96,1.42-1.08,.73-.14,1.48-.09,2.23-.09,12.24,0,24.47,0,36.71,0,1.19,0,2.46-.23,3.5,.65,0,3.52,0,7.03,0,10.55-.71,.66-1.61,.64-2.49,.64-9.73,.02-19.45,0-29.18,.02-.68,0-1.34-.13-2-.25Z"/>
  <path class="cls-61" d="M468.27,280.82c-13.8,0-27.61,0-41.41,.02-.83,0-1.77-.36-2.45,.49-2.06-2.14-4.69-3.68-6.46-6.13-.15-.5-.3-1-.48-1.62,.44-.02,.82-.06,1.2-.06,15.8,0,31.6,.03,47.4-.04,1.82,0,2.39,.51,2.24,2.28-.15,1.68-.04,3.37-.05,5.06Z"/>
  <path class="cls-62" d="M434.6,291.78c.66-.71,1.53-.4,2.3-.4,10.46-.02,20.91-.01,31.37-.01,0,2.84,0,5.68,0,8.52-.91,.79-2.02,.62-3.08,.62-5.97,.02-11.94,.01-17.92,0-1.15,0-2.28,.05-3.39,.35-3.45-2.67-6.35-5.89-9.28-9.09Z"/>
  <path class="cls-63" d="M443.88,300.87c-.29-1.61,.96-.94,1.55-.95,7.61-.04,15.23-.03,22.84-.03,0,3.65,0,7.3,0,10.96-.84,.74-1.88,.62-2.88,.63-3.83,.02-7.66-.02-11.49,.02-2.22,.02-2.38,.22-2.43,2.44-.04,1.81,.05,3.63-.04,5.44,.07,3.22,.08,6.44,0,9.66,.06,1.53,.08,3.06,0,4.59-.04,.74,.13,1.67-.93,1.96-.02-7.68-.28-15.38,.04-23.04,.16-3.9-1.37-6.53-4.04-8.9-.95-.85-1.98-1.62-2.62-2.77Z"/>
  <path class="cls-102" d="M444.83,340.03c1.43,1.37,2.83,2.77,4.29,4.1,.34,.31,.65,1.23,1.36,.38,.32-1.06,.23-2.16,.12-3.21-.18-1.77,.7-2.27,2.23-2.28,2.77-.02,5.53,0,8.3-.01,1.55,0,3.1-.02,4.65,0,.88,.01,1.77-.01,2.48,.64,0,2.57,0,5.14,0,7.71-.92,.79-2.03,.62-3.1,.62-6.68,.02-13.37,0-20.05,.01-1.15,0-2.32-.09-3.19,.9-2.3-2.3-4.59-4.59-6.89-6.89-.54-.78-1.2-1.44-1.99-1.97l-.03-.03c.19-1.03,1.08-.91,1.75-.93,2.49-.1,4.97-.04,7.46-.04,1.01,0,1.77,.58,2.6,1Z"/>
  <path class="cls-40" d="M441.93,348.9c-.47-1.53,.63-1.5,1.56-1.52,2.89-.04,5.78-.01,8.66-.01,5.37,0,10.75,0,16.12,0,0,2.71,0,5.41,0,8.12-.78,.71-1.75,.65-2.68,.65-4.66,.02-9.31,0-13.97,.01-1.04,0-2.01-.21-2.94-.62-2.37-2.08-4.62-4.3-6.74-6.63Z"/>
  <path class="cls-54" d="M468.27,339.66c-5.11,0-10.23,.07-15.34-.04-1.71-.04-2.27,.51-2.13,2.17,.07,.89,.35,1.88-.32,2.72,0-2.98,.01-5.95,.02-8.93,.74-2.13,.13-4.32,.34-6.47,.65-.59,1.46-.64,2.27-.64,4.3-.03,8.6-.03,12.89,0,.81,0,1.62,.04,2.27,.64,0,3.52,0,7.03,0,10.55Z"/>
  <path class="cls-40" d="M468.27,364.41c0,3.52,0,7.03,0,10.55-.59,.55-1.32,.63-2.07,.64-4.51,.04-9.01,.04-13.52,0-.67,0-1.35-.07-1.89-.56-.36-3.21-.06-6.44-.15-9.66-.05-1.65,1.22-1.56,2.25-1.59,3.83-.09,7.66-.05,11.49-.02,1.32,0,2.71-.3,3.88,.65Z"/>
  <path class="cls-103" d="M450.83,374.96c5.81,0,11.62,0,17.44,0,0,3.52,0,7.03,0,10.55-.65,.6-1.46,.64-2.26,.64-4.36,.02-8.71,.03-13.07,0-.74,0-1.48-.02-2.1-.53-.33-3.55-.33-7.11,0-10.66Z"/>
  <path class="cls-49" d="M450.83,374.96v10.55c.37,.63,.66,1.25-.33,1.61-.02-8.85-.09-17.7-.03-26.56,.01-1.97-.15-3.73-1.8-5.03,6.53-.02,13.07-.03,19.6-.05,0,2.98,0,5.95,0,8.93-5.21,0-10.41,.04-15.62-.03-1.43-.02-1.88,.44-1.84,1.85,.09,2.91,.03,5.81,.03,8.72Z"/>
  <path class="cls-53" d="M468.27,329.11h-17.43v-9.74c.65-.59,1.46-.64,2.27-.64,4.3-.03,8.6-.03,12.89,0,.81,0,1.62,.04,2.27,.64,0,3.25,0,6.49,0,9.74Z"/>
  <path class="cls-101" d="M450.51,387.11c.5-.46,.28-1.06,.33-1.61,5.81,0,11.62,0,17.44,0,0,2.98,0,5.95,0,8.93-5.16,0-10.33,.05-15.49-.03-1.45-.02-2.11,.32-1.98,1.89,.12,1.4,.03,2.81,.03,4.22,.58,.64,.63,1.45,.63,2.25,0,2.73,.07,5.45-.03,8.18,.05,1.2,.09,2.41-.01,3.61-.06,.68,.08,1.54-.91,1.78,0-9.74,0-19.48,0-29.21Z"/>
  <path class="cls-56" d="M468.27,319.37h-17.43c0-2.23,.07-4.47-.03-6.69-.06-1.41,.41-1.88,1.84-1.86,5.21,.07,10.41,.03,15.62,.03,0,2.84,0,5.68,0,8.52Z"/>
  <path class="cls-85" d="M411.07,280.82c0-2.43,0-4.87,0-7.3,0-1.06,0-2.12,.01-3.18,0-.45-.11-1.02,.47-1.17,.64-.16,.96,.27,1.11,.85-1.31-.81-1.21,.11-1.21,.97,0,6.94,.02,13.88,0,20.82,0,4.72-.04,9.43-.07,14.15-1.12-.39-.9-1.4-.92-2.21-.06-2.36-.08-4.71,0-7.07-.06-2.19-.06-4.37,0-6.56-.1-2.34-.04-4.68-.03-7.02,0-.81,.04-1.62,.63-2.27Z"/>
  <path class="cls-96" d="M606.24,220.36c-.81,.98-1.93,.81-3,.81-26.5,0-53,0-79.5,0-93.56,0-187.12,0-280.67,0-1.21,0-2.43,.15-3.55-.55-1.12-.7-1.85,1.1-2.98,.51,2.42-1.72,5-3.15,7.66-4.46,1.08-.35,2.06-.89,2.9-1.65,0,0-.02,0-.02,0,.27,.01,.64,.15,.79,.02,2.02-1.64,4.26-.84,6.52-.84,112.14,.07,224.29,.06,336.43,.06,.95,0,1.94,.1,2.67-.65,.52-.54,1.05-.26,1.47-.02,3.7,2.11,7.37,4.26,11.05,6.41,.1,.06,.14,.22,.21,.34Z"/>
  <path class="cls-69" d="M468.26,450.02c0,2.3,0,4.6,0,6.9h-17.43c-.06-.11-.12-.22-.18-.34,.12-2.25-.36-4.52,.28-6.75,.26-.09-.09-.06,.18-.1,5.49-.68,10.98-.43,16.47-.13,.26,.01,.48,.24,.68,.42Z"/>
  <path class="cls-69" d="M450.39,461.37c.04-1.48,.08-2.97,.12-4.45,.11-.18,.22-.19,.33,0-.23,1.48,.5,3.05-.45,4.45Z"/>
  <path class="cls-78" d="M632.21,423.24h.4c0,7.71,0,15.42,0,23.12-.8-1.14-.22-2.44-.4-3.65v-19.48Z"/>
  <path class="cls-115" d="M633.06,470.77c-.03-.71-.05-1.43-.08-2.14-.01-1.61-.03-3.21-.04-4.82,.03-.74,.08-1.48,.08-2.22,0-21.66,0-43.32-.01-64.97,0-.74-.05-1.48-.07-2.22-.22-.73-.11-1.48-.11-2.21,0-11.34-.01-22.69,0-34.03,0-4.39,.01-8.77-.21-13.15,0-3.13-.01-6.26,.01-9.39,0-.71-.19-1.49,.44-2.07,.13,0,.25,.04,.37,.1,0,44.57,0,89.14,0,133.71,0,.34,.04,.67,.06,1.01-.13,.81,.18,1.69-.43,2.42Z"/>
  <path class="cls-59" d="M632.94,344.89c.03,13.13,.06,26.27,.07,39.4,0,3.37-.05,6.73-.07,10.1-.72-2.94-.13-5.93-.33-8.89,0-7.03,0-14.07,0-21.1,0-2.57,0-5.14,0-7.71,.32-5.02-.62-10-.4-15.01,0-2.16-.12-4.32,.04-6.47,.14-1.91-.42-2.52-2.42-2.51-10.71,.09-21.43,.04-32.14,.03,3.1-3.39,6.36-6.63,9.74-9.74,.9-.53,1.89-.64,2.91-.64,6.59,0,13.18,0,19.76,.01,.87,0,1.76-.03,2.53,.49,.71,.79,.54,1.77,.55,2.7,.05,5.78-.64,11.55-.37,17.33,.03,.67-.11,1.35,.13,2Z"/>
  <path class="cls-57" d="M412.37,307.57c3.38,3.12,6.62,6.36,9.74,9.74-1.17,.39-2.36,.45-3.59,.45-68.61-.01-137.22-.01-205.83-.01,0-3.52,0-7.03,0-10.55,.52-.52,1.19-.6,1.87-.64,.61-.04,1.22-.03,1.82-.03,63.85,0,127.7,0,191.55-.01,1.58,0,3.11,.05,4.43,1.05Z"/>
  <path class="cls-59" d="M396.47,348.58c0-5.87-.09-11.74,.03-17.61,.05-2.2,.49-4.4,.36-6.63-.05-.94,.34-1.34,1.29-1.33,3.84,.02,7.69,.04,11.54,0,1.29-.02,1.39,.68,1.38,1.67-.03,3.78-.01,7.56-.01,11.33-.79,.69-1.76,.62-2.7,.62-2.91,.02-5.81,.04-8.72,0-1.54-.02-2.2,.57-2.17,2.14,.05,2.02,.07,4.05-.02,6.08-.24,1.27,.73,2.85-.99,3.73Z"/>
  <path class="cls-40" d="M396.47,348.58c.8-1.14,.22-2.44,.4-3.65,.53-.49,1.19-.61,1.87-.62,3.49-.05,6.98-.05,10.46,0,.68,0,1.34,.14,1.87,.62,0,3.52,0,7.03,0,10.55h-10.31c-3.89,0-3.83,0-3.91,3.99-.04,1.64,.46,3.34-.37,4.93,0-5.27,0-10.55,0-15.82Z"/>
  <path class="cls-103" d="M411.07,344.93h-14.2c0-2.41,.06-4.83-.02-7.24-.05-1.34,.46-1.73,1.75-1.71,4.16,.06,8.31,.02,12.47,.02,0,2.98,0,5.95,0,8.93Z"/>
  <path class="cls-53" d="M427.39,322.59c2.43,2.17,4.72,4.47,6.9,6.9-1,.71-2.11,.25-3.15,.22-2.9-.06-5.81,.27-8.7-.21-2.16-1.89-4.21-3.89-6.1-6.05,.45-.58,1.1-.43,1.69-.41,3.13,.09,6.25-.07,9.36-.44Z"/>
  <path class="cls-77" d="M450.83,411.07v-10.55c5.17,0,10.34,.05,15.51-.03,1.48-.02,2.02,.38,1.96,1.92-.11,2.88-.04,5.77-.05,8.66-.65,.6-1.46,.64-2.27,.64-4.3,.03-8.59,.03-12.89,0-.81,0-1.62-.05-2.27-.64Z"/>
  <path class="cls-68" d="M468.26,450.02h-17.43c-.34-3.54-.29-7.09-.03-10.63,.67-.58,1.49-.56,2.3-.56,4.23-.03,8.46-.02,12.7,0,.87,0,1.76,0,2.47,.65,0,3.52,0,7.03,0,10.55Z"/>
  <path class="cls-76" d="M468.26,420c0,3.52,0,7.03,0,10.55-.65,.6-1.46,.63-2.27,.64-4.3,.03-8.59,.03-12.89,0-.8,0-1.63,0-2.27-.62-.44-3.29-.1-6.6-.19-9.9-.02-.77,.51-1.15,1.14-1.17,5.26-.21,10.53-.36,15.79,.08,.26,.02,.48,.24,.68,.42Z"/>
  <path class="cls-82" d="M468.26,420c-5.21,0-10.41,.04-15.62-.03-1.43-.02-1.88,.45-1.84,1.86,.09,2.9,.03,5.81,.03,8.72-.05,.04-.11,.09-.16,.13-.05-.04-.11-.09-.16-.13,0-4.74,0-9.48,0-14.22,.72-1.71,.14-3.51,.33-5.26,5.81,0,11.62,0,17.43,0,0,2.98,0,5.95,0,8.93Z"/>
  <path class="cls-70" d="M450.83,430.55c5.81,0,11.62,0,17.43,0,0,2.97,0,5.95,0,8.92h-17.43c-.32-2.98-.32-5.95,0-8.93Z"/>
  <path class="cls-64" d="M632.94,344.89c-.56-.64-.31-1.42-.31-2.13-.02-6.58-.01-13.16-.01-19.75-1.08-1.83-.95-3.88-1.03-5.88-.09-2.21-.22-2.38-2.48-2.41-3.37-.03-6.73,.01-10.1-.02-.92,0-1.91,.13-2.66-.63,2.56-2.86,5.31-5.51,8.12-8.12,2.34-1.62,4.84-.97,7.47-.72,.2-.91,0-1.99-.15-3.07-.2-1.34-.35-2.68,.42-3.92h0c1.14,.2,.88,1.17,.99,1.9,.86,5.57-.46,4.76,5.43,4.83,2.76,.04,5.52-.05,8.27,.03,2.32,.07,2.53,.6,1.37,2.6-2.06,3.52-4.09,7.05-6.52,10.35-1.89,.79-3.87,.36-5.81,.38-1.63,.02-2.33,.59-2.29,2.25,.06,2.77,0,5.54,.02,8.31,0,1.23-.12,2.43-.6,3.57,0,.35,0,.7,0,1.05-.04,3.79-.08,7.57-.13,11.36Z"/>
  <path class="cls-43" d="M655.65,296.98c-.85,.61-1.22,1.53-1.6,2.46-1.06,1.52-2.11,3.04-3.17,4.55-.75-.88-.24-1.63,.24-2.38,.84-1.31,1.58-2.67,2.29-4.05-.44-.58-1.02-.31-1.51-.31-5.14-.02-10.28,0-15.42-.02-.92,0-1.92,.18-2.68-.59,2.83-3.12,5.82-6.09,8.92-8.93,.72-.4,1.49-.63,2.32-.63,4.46-.02,8.92-.05,13.38,.03,.83,.02,2-.26,2.23,1.11-.18,.49-.35,.98-.53,1.47-1.68,2.32-3.29,4.68-4.48,7.29Z"/>
  <path class="cls-52" d="M616.34,314.08c4.72,0,9.43,.05,14.15,0,1.31-.02,1.88,.39,1.73,1.73-.29,2.43,.47,4.8,.4,7.22-8.4,0-16.8-.01-25.19-.02,2.83-3.11,5.82-6.08,8.92-8.92Z"/>
  <path class="cls-46" d="M633.8,296.64h20.9c-1.42,1.99-1.99,4.19-3.54,5.81-.42,.44-.26,1.01-.28,1.54-1.91,3.22-3.82,6.45-5.73,9.67-1.06,1.53-2.11,3.06-3.17,4.59-.11-.1-.16-.21-.14-.32,.02-.12,.05-.18,.08-.18,.19-1.54,1.35-2.6,2.12-3.78,1.46-2.24,2.69-4.6,4.1-6.87,.23-.37,.85-.58,.53-1.17-.29-.51-.83-.35-1.28-.35-3.99-.01-7.97-.08-11.95,.02-1.72,.04-2.47-.26-2.51-2.27-.03-1.67,.04-3.47-.72-5.09,.4-.68,.93-1.21,1.6-1.61Z"/>
  <path class="cls-47" d="M660.66,288.22c-.54-.75-1.34-.48-2.04-.49-5.3-.02-10.6-.02-15.9-.03,3.38-3.65,6.9-7.17,10.55-10.55,.72-.43,1.5-.58,2.32-.58,2.97,0,5.94-.03,8.9,.02,.85,.01,1.87-.14,2.33,.82,.4,.84-.47,1.32-.83,1.92-1.26,2.13-2.81,4.09-3.75,6.41-.34,.94-.83,1.79-1.59,2.47Z"/>
  <path class="cls-51" d="M662.26,285.75c.31-2.41,1.95-4.12,3.11-6.1,.41-.69,1.58-1.25,1.07-2.15-.42-.74-1.49-.31-2.26-.32-3.63-.04-7.26-.02-10.9-.03,2.84-3.11,5.82-6.08,8.92-8.93,3.01-1.13,6.14-.71,9.17-.38,2.08,.23,.66,1.63,.27,2.55-.26,1.2-1.19,2.05-1.67,3.14-1.51,2.55-3.02,5.1-4.53,7.64-1.06,1.52-2.11,3.04-3.17,4.57Z"/>
  <path class="cls-99" d="M671.16,270.68c.1-.24,.14-.55,.31-.71,.45-.39,.72-.92,.55-1.41-.23-.65-.93-.3-1.41-.31-2.8-.04-5.61-.03-8.41-.03,4.34-4.59,8.78-9.07,13.4-13.39,1.11-.94,2.42-1.07,3.79-.88,1.54,.22,1.76,.71,1.02,2.09-1.66,3.1-3.52,6.08-5.62,8.91-.21,.28-.16,.64-.34,.93-.02,.23-.04,.46-.07,.68-.73,.49-1.04,1.23-1.21,2.05-.39,.55-.77,1.1-1.16,1.66-.25,.19-.38,.65-.84,.39Z"/>
  <path class="cls-91" d="M674.44,265.9c.16-2.07,1.67-3.46,2.73-5.01,1.2-1.75,1.88-3.77,3.22-5.42,.63-.77-.06-.95-.6-.99-1.41-.11-2.82-.08-4.2,.36,4.43-4.49,8.85-8.97,13.28-13.46,.39-.39,.82-.91,1,.15-2.85,4.64-5.71,9.27-8.55,13.91-.35,.57-.61,1.18-.92,1.77-1.21,1.83-2.46,3.64-3.62,5.5-.7,1.13-1.4,2.24-2.35,3.18Z"/>
  <path class="cls-46" d="M632.2,298.26c-.18,2.02,.24,3.99,.43,5.98,.1,1.07-.11,1.45-1.38,1.39-2.26-.11-4.55-.34-6.78,.33,2.46-2.69,4.99-5.3,7.74-7.71Z"/>
  <path class="cls-20" d="M690.97,238.57c.17-.23,.35-.47,.52-.7,1.36,.56,.23,1.01-.06,1.5-.01-.35-.14-.63-.46-.8Z"/>
  <path class="cls-9" d="M393.66,583.06c-.83-.74-1.78-1.28-2.83-1.63-3.27-1.99-6.54-3.98-9.81-5.96-2.83-2.05-5.9-3.71-8.93-5.43,.35-.85,1.08-.83,1.73-.91,.81-.09,1.62-.05,2.43-.05,30.97,0,61.93,0,92.9,0,1.15,0,2.3-.1,3.42,.21,1.19,.54,.48,.9-.13,1.27-1.64,.97-3.34,1.83-4.97,2.8-3.57,2.68-7.65,4.52-11.42,6.87-1.08,.67-2.14,1.37-3.21,2.06-7.19,4.12-14.32,8.33-21.57,12.33-5.76,3.18-11.66,2.98-17.42-.09-4.21-2.24-8.32-4.67-12.48-7.01-2.46-1.68-5.05-3.14-7.72-4.45Z"/>
  <path class="cls-3" d="M286.93,521.41c-.46-.41-.96-.75-1.58-.86-4.75-2.82-9.51-5.63-14.26-8.45-.6-.53-1.44-.76-1.91-1.46-1.84-.97-3.65-1.97-5.37-3.17,.47-.8,1.24-.79,1.96-.85,.88-.08,1.76-.04,2.64-.04,102.91,0,205.83,0,308.74,0,1.28,0,2.57-.14,3.83,.24,1.49,1.22-.74,1.01-.66,1.69l.02-.02c-3.22,1.21-5.93,3.34-8.94,4.94-1.82,.97-3.68,1.91-5.3,3.22-1.83,1.66-4.27,2.35-6.16,3.91-.93,.44-1.85,.88-2.78,1.33-.48-.97,.07-1.52,.83-1.97,.99-.58,2.01-1.1,2.9-1.49H284.47c4,2.17,8.36,4.59,12.54,7.34,.35,.4,.68,.82,.41,1.4-.51-.18-1.02-.36-1.52-.53-2.86-1.96-5.89-3.64-8.96-5.23Z"/>
  <path class="cls-7" d="M297.41,527.17c-.12-.29-.24-.58-.36-.87,.57-.61,1.33-.6,2.07-.64,.81-.04,1.62-.02,2.43-.02,80.66,0,161.31,0,241.97,0,1.21,0,2.44-.1,3.64,.15,.39,.08,.87,.17,.97,.61,.14,.58-.37,.76-.78,.97-2.17,1.07-4.2,2.39-6.33,3.53-.76,.41-1.59,.78-2.12,1.52-1.64,1.05-3.28,2.11-4.92,3.16-2.7,1.26-5.25,2.79-7.73,4.44-2.81,1.53-5.63,3.07-8.44,4.6-.56-.98,.29-1.3,.84-1.67,1.31-.89,2.67-1.71,3.97-2.61,3.89-1.88,7.36-4.52,10.69-6.09-73.37,0-147.4,0-221.36,0,.94,.4,1.95,.89,2.86,1.54,.64,.46,1.43,.92,.89,1.95-2.67-1.31-5.26-2.78-7.72-4.45-3.27-2.48-6.98-4.2-10.57-6.13v.02Z"/>
  <path class="cls-5" d="M315.7,537.73c-.02-1.45-1.42-1.45-2.22-2.02-1.06-.74-2.29-1.24-3.81-2.03h225.5c-4.45,2.19-8.12,5.73-12.92,7.23-.92,.29-1.87,.24-2.82,.24-63.81,0-127.61,0-191.42,0-.99,0-2-.09-3.05,.33,4.4,2.76,8.86,5.36,13.3,7.97,1.76,1.11,3.58,2.13,5.32,3.28,.56,.37,1.5,.59,.93,1.64-1.88-.98-3.75-1.97-5.63-2.95-6.07-3.56-12.14-7.11-18.2-10.68-1.67-.98-3.32-2-4.98-3Z"/>
  <path class="cls-4" d="M297.41,527.15c2.65,.56,4.81,2.16,7.09,3.44,1.25,.7,2.95,.99,3.48,2.68-3.63-1.87-7.19-3.84-10.57-6.13Z"/>
  <path class="cls-93" d="M499.89,157.93c3.18,1.87,6.37,3.74,9.55,5.63,.63,.37,1.21,.82,1.82,1.23-.64,.49-1.28,.25-1.92,.01-.44-.17-.91-.32-1.28-.61-3.61-2.79-7.77-2.87-12.11-2.86-50.11,.07-100.22,.05-150.32,.01-1.71,0-3.49,.64-5.17-.22,4.34-2.79,8.81-5.33,13.38-7.71,2.7-1.92,5.78-1.89,8.91-1.89,39.54,.03,79.08,.03,118.62,.01,3.51,0,7.04-.27,10.14,1.85l8.38,4.55Z"/>
  <path class="cls-35" d="M371.36,142.93c1.06-.34,1.99-.91,2.83-1.63,2.68-1.3,5.27-2.76,7.72-4.46,1.85-.57,3.22-2.12,5.15-2.53,1.13-.52,2.32-.64,3.56-.64,21.35,0,42.7,.01,64.04,0,1.67,0,3.2,.41,4.68,1.09,.93,.43,1.86,.86,2.79,1.3,3.41,2.41,7.16,4.24,10.73,6.38,2.7,1.62,5.4,3.24,8.1,4.86-1.18,.92-2.24,.19-3.14-.42-1.6-1.09-3.32-1.34-5.19-1.34-33.32,.02-66.64,.02-99.95,0-1.96,0-3.73,.31-5.32,1.54-1.07,.83-2.34,1.34-3.57,1.9-.75,.34-1.52,.64-2.27-.03,3.28-2,6.57-4,9.85-5.99Z"/>
  <path class="cls-94" d="M361.51,148.93c2.33-.22,4.19-1.57,6.04-2.78,1.18-.78,2.29-1.27,3.71-1.27,34.24,.02,68.49,.04,102.73-.04,2.09,0,3.46,1.19,5.08,2,.65,.33,1.21,.49,1.88,.45,3.63,1.83,7.15,3.85,10.55,6.09-6.13-2.3-12.51-1.1-18.76-1.12-34.8-.13-69.61-.1-104.41-.02-4.84,.01-9.81-.98-14.5,1.16,.7-.52,1.4-1.04,2.1-1.56,1.86-.97,3.72-1.94,5.58-2.91Z"/>
  <path class="cls-96" d="M618.03,226.44c-2.83-1.06-5.56-2.27-7.72-4.49,2.68,1.31,5.28,2.76,7.72,4.49Z"/>
  <path class="cls-96" d="M610.33,221.96c-1.33,.11-2.27-.45-2.85-1.64,1.02,.43,2.03,.88,2.85,1.64Z"/>
  <path class="cls-1" d="M580.31,508.52c-.17-.94,.9-.75,1.18-1.28,1.65-2.64,4.64-3.22,6.64-4.62-110.14,0-220.73,0-331,0,1.26,.58,2.81,1.4,4.23,2.41,.6,.42,1.25,.91,.78,1.83-3.05-1.61-6.11-3.22-8.94-5.21-.43-1.55-2-1.62-3.06-2.35-2.37-1.65-5.17-2.6-7.5-4.63h360.33c-.5,.59-1.76,.46-1.6,1.68-6.9,4.27-13.96,8.27-21.08,12.18Z"/>
  <path class="cls-2" d="M566.09,516.65c1.23-1.85,3.37-2.42,5.11-3.53,2.41-1.52,4.97-2.81,7.41-4.28,.58-.35,1.11-.37,1.71-.35-.71,.51-1.42,1.02-2.13,1.52-3.73,2.1-7.45,4.2-11.18,6.29-.28,.16-.61,.23-.92,.34Z"/>
  <path class="cls-6" d="M338.45,550.24c-4.9-2.85-9.8-5.69-14.7-8.53-.22-.13-.55-.13-.51-.5,.04-.4,.35-.59,.68-.64,.53-.07,1.08-.07,1.62-.07,64.87,0,129.75,0,194.62,0,.71,0,1.5-.27,2.1,.39-.82,1.43-2.5,1.73-3.66,2.73-.35,.3-.81,.42-.78,.99-.7,.49-1.4,.99-2.11,1.48-6.19,3.34-12.29,6.83-18.27,10.54-.92,.44-1.85,.89-2.77,1.33-.49-1.04,.27-1.54,.95-1.93,3.13-1.82,6.33-3.5,9-5.3-.6,.24-1.63,.14-2.63,.14-53.06,0-106.11,0-159.17,.02-1.5,0-2.95-.21-4.37-.66Z"/>
  <path class="cls-8" d="M338.45,550.24h167.94c-3.45,2.45-7.01,4.52-10.67,6.44-.59,.31-1.05,.58-1.05,1.3-8.1,4.72-16.2,9.45-24.3,14.17-.69,.41-1.39,.82-2.08,1.22-.27,0-.54-.01-.81-.02,1.23-1.9,3.57-2.03,5.22-3.27,.16-.12,.31-.25,.46-.37,.54-1.2,1.72-1.73,2.74-2.31,3.98-2.29,7.98-4.52,11.89-6.93,.5-.31,1.05-.54,1.56-.68-44.53,0-89.12,0-133.72,0,1.29,.06,2.41,.85,3.58,1.56,.72,.44,1.4,.94,.74,1.93-3.5-1.92-7-3.85-10.5-5.77-1.64-1.05-3.28-2.09-4.92-3.14-1.47-1.73-3.53-2.58-5.41-3.71-.22-.13-.44-.28-.65-.42Z"/>
  <path class="cls-65" d="M459.34,134.76c-1.84-.52-3.73-.41-5.62-.41-22.22,0-44.44-.02-66.66-.03,1.52-1.6,3.8-2.07,5.4-3.56,4.39-2.48,8.78-4.97,13.18-7.44,.29-.16,.61-.25,.92-.37,2.58-.97,4.78-2.62,7.2-3.87,6.08-3.16,12.17-3.02,18.25,.22,1.81,.97,3.36,2.47,5.47,2.86,.8,.41,1.6,.83,2.4,1.24,.72,.94,1.58,1.62,2.83,1.63,.95,.54,1.9,1.09,2.85,1.63,2.68,2.28,5.73,3.9,8.96,5.24,.38,.16,.77,.32,1.15,.48,1.23,.8,2.45,1.59,3.68,2.39Z"/>
  <path class="cls-4" d="M538.9,532.43c-.09-1.32,1.2-1.4,1.89-1.82,2.3-1.41,4.74-2.59,7.08-4.3-83.6,0-167.21,0-250.81,0-4.84-2.76-9.68-5.53-14.71-8.39h280.62c-1.64,.92-3.1,1.97-4.72,2.56-.87,.32-.84,.86-1.09,1.41-5.98,3.7-12.07,7.2-18.25,10.54Z"/>
  <path class="cls-90" d="M539.75,181.39c.93,.41,1.86,.83,2.79,1.24,5.7,3.31,11.41,6.62,17.12,9.92,.47,.27,.98,.47,1.25,.99-.79,.61-1.54,.24-2.28-.11-.55-.26-1.03-.64-1.55-.96-3.3-2.11-6.75-3.19-10.83-3.18-82.72,.11-165.44,.08-248.16,.06-2.55,0-4.97,.16-7.19,1.59-.72,.46-1.57,.89-2.44,.18,.72-.52,1.43-1.03,2.15-1.55,2.26-1.04,4.39-2.31,6.48-3.66,1.43-.06,2.33-1.29,3.62-1.66,1.54-.68,2.98-1.56,4.37-2.49,2.31-1.54,4.73-2.28,7.58-2.27,45.96,.07,91.92,.05,137.88,.05,26.63,0,53.26,.01,79.89-.02,3.26,0,6.49-.12,9.32,1.87Z"/>
  <path class="cls-92" d="M288.45,191.12c1.69,.15,2.75-1.25,4.15-1.81,.91-.36,1.73-.6,2.67-.6,84.88,0,169.76,0,254.64,0,3.23,0,5.48,2.22,8.08,3.6,.95,.51,1.8,1.12,2.91,1.23,1.92,.63,3.57,1.76,5.23,2.86-1.72,.22-2.74-1.25-4.16-1.77-.62-.23-.91-.54-1.46,.12-.64,.79-1.65,.44-2.49,.44-20.35,.02-40.7,.01-61.04,.01-69.63,0-139.26,0-208.89-.02-1.15,0-2.38,.4-3.36-.83-.56-.7-1.17,.31-1.73,.54-.73,.29-1.32,.92-2.21,.7,2.42-1.72,5.02-3.13,7.66-4.47Z"/>
  <path class="cls-36" d="M340.45,161.12c2.12-.51,4.28-.4,6.43-.4,50.01,0,100.03,.03,150.04-.06,4.08,0,7.86,.27,11.25,2.79,.88,.65,1.87,1.33,3.08,1.33,4.09,2.06,8.04,4.34,11.85,6.87-.56,.62-1.32,.62-2.06,.65-.95,.05-1.89,.02-2.84,.02-63.67,0-127.34,0-191.01-.02-2.5,0-4.81,.23-6.93,1.72-.83,.59-1.85,1.24-2.98,.46,.71-.52,1.42-1.03,2.13-1.55,3.62-1.85,7.15-3.86,10.54-6.09,2.85-1.59,5.69-3.2,8.55-4.76,.63-.35,1.15-.94,1.94-.97Z"/>
  <path class="cls-37" d="M317.28,174.49c1.3,.06,2.33-.69,3.26-1.38,1.63-1.2,3.35-1.47,5.31-1.47,64.81,.03,129.61,.03,194.42,.03,.95,0,1.89-.01,2.84-.02,.51,.17,1.01,.33,1.52,.5,.82,.52,1.64,1.05,2.47,1.57,.58,.57,1.19,1.11,2.06,1.19,.79,.42,1.59,.84,2.38,1.26,2.04,1.79,4.49,2.9,6.87,4.12,.45,.36,.9,.73,1.35,1.09-5.1-2.22-10.48-1.14-15.72-1.15-69.49-.08-138.97,0-208.46-.14-4.84,0-9.17,.65-13.02,3.57-.6,.46-1.16,.6-1.85,.57,.27-.27,.54-.54,.81-.81,5.26-2.98,10.51-5.96,15.77-8.94Z"/>
  <path class="cls-17" d="M359.93,563.28c-.23-1.91-2.27-1.69-3.27-2.75-.57-.61-1.59-.79-2.76-1.32h137.42c-6.29,3.64-12.23,7.07-18.18,10.5h-101.05c3.33,1.42,5.79,3.35,8.47,4.92,.35,.21,.43,.48,.45,.82-2.81-1.53-5.63-3.06-8.44-4.6-4.22-2.53-8.44-5.06-12.65-7.58Z"/>
  <path class="cls-95" d="M247.11,215.03c-.54,1.3-1.67,1.56-2.9,1.65,.87-.71,1.8-1.34,2.9-1.65Z"/>
  <path class="cls-96" d="M236.56,221.11c-.54,1.3-1.67,1.56-2.9,1.65,.87-.72,1.8-1.33,2.9-1.65Z"/>
  <path class="cls-45" d="M641.92,317.74c.02,.17,.04,.33,.06,.5-1.59,3.26-3.81,6.13-5.6,9.27-.36,.63-.93,1.16-1.01,1.94-1.09,.77-1.27,2.23-2.31,3.03-.01-4.38,0-8.76-.07-13.14-.02-1.25,.43-1.65,1.65-1.62,2.42,.07,4.85,.02,7.28,.02Z"/>
  <path class="cls-92" d="M280.8,195.57c-.6,1.16-1.61,1.61-2.86,1.65,.84-.75,1.77-1.33,2.86-1.65Z"/>
  <path class="cls-113" d="M671.16,270.68c.28-.13,.56-.26,.84-.39-.17,.51-.35,1.03-.52,1.54-.42,.31-.78,.67-.78,1.25-.25,.16-.5,.31-.74,.47-.1-1.16,1.13-1.77,1.2-2.86Z"/>
  <path class="cls-58" d="M422.44,329.5c1.16-.79,2.46-.37,3.69-.36,2.72,.02,5.47-.35,8.16,.35,3.65,3.38,7.16,6.9,10.55,10.55-3.93-.56-7.87-.65-11.81-.03-3.66-3.37-7.19-6.87-10.58-10.51Z"/>
  <path class="cls-76" d="M450.83,430.55v26.37h-.16s-.16,0-.16,0c0-8.79,0-17.58,0-26.37,.11,0,.22,0,.33,0Z"/>
  <path class="cls-58" d="M433.05,340.03c1.19,.12,1.86,.78,1.99,1.97-.79-.53-1.45-1.19-1.99-1.97Z"/>
  <path class="cls-116" d="M222.75,484.14c1.32,.04,2.2,1.02,3.3,1.52,.35,.22,.73,.42,.8,.89-.26-.02-.52-.03-.77-.05-.97-.86-2.13-1.41-3.28-1.98-.03-.12-.05-.25-.04-.38Z"/>
  <path class="cls-67" d="M212.7,453.27c0-3.52,0-7.03,0-10.55,.77-.72,1.74-.65,2.67-.65,12.12-.02,24.23-.02,36.35,0,.93,0,1.91-.09,2.67,.65-.65,3.34,1.06,5.1,3.93,6.41,2.5,1.14,4.79,2.72,7.18,4.11-.74,.79-1.73,.68-2.66,.69-15.82,.02-31.64,.02-47.45,0-.94,0-1.91,.07-2.68-.65Z"/>
  <path class="cls-73" d="M212.7,453.27c17.6-.01,35.2-.02,52.8-.04,4.57,2.4,9.11,4.86,13.43,7.7-22.08,.02-44.15,.03-66.23,.05,0-2.57,0-5.14,0-7.71Z"/>
  <path class="cls-80" d="M212.69,407.42c0-3.52,0-7.03,0-10.55,.77-.73,1.74-.65,2.68-.66,12.14-.02,24.28-.02,36.42,0,.94,0,1.9-.02,2.69,.65,0,3.52-.02,7.03-.03,10.55-.78,.7-1.74,.65-2.68,.65-12.13,.01-24.26,.01-36.39,0-.93,0-1.91,.07-2.68-.65Z"/>
  <path class="cls-106" d="M254.48,396.87c-13.93,0-27.86,0-41.78,0,0-3.25,0-6.49,0-9.74,.77-.72,1.74-.65,2.67-.65,12.12-.02,24.24-.02,36.35,0,.93,0,1.91-.09,2.67,.65,.04,1.53,.08,3.05,.12,4.58,.15,1.72,.17,3.44-.03,5.15Z"/>
  <path class="cls-75" d="M212.7,433.79c0-3.25,0-6.49,0-9.74,.77-.72,1.74-.65,2.67-.65,12.12-.02,24.25-.02,36.37,0,.93,0,1.91-.07,2.67,.65,0,3.25,0,6.49-.01,9.74-.77,.73-1.74,.65-2.67,.65-12.12,.02-24.24,.02-36.36,0-.93,0-1.91,.07-2.67-.65Z"/>
  <path class="cls-66" d="M212.7,433.79c13.9,0,27.8,0,41.7,0,0,2.98,0,5.95-.01,8.93-13.9,0-27.79,0-41.69,0,0-2.97,0-5.95,0-8.92Z"/>
  <path class="cls-83" d="M212.69,407.42c13.92,0,27.84,0,41.75,0,0,2.98-.01,5.95-.02,8.93-.77,.71-1.74,.65-2.68,.65-12.13,.02-24.25,.02-36.38,0-.93,0-1.91,.07-2.68-.65,0-2.98,0-5.95,0-8.93Z"/>
  <path class="cls-79" d="M212.7,416.35c13.91,0,27.82,0,41.73,0,0,2.57-.01,5.14-.02,7.71h-41.72c0-2.57,0-5.14,0-7.71Z"/>
  <path class="cls-39" d="M212.69,368.06q-.14-4.87,4.6-4.87c45.12,0,90.25,0,135.37,0,3.65,0,3.18-.47,3.22,3.24,0,.54-.01,1.08-.02,1.62-47.73,0-95.45,0-143.17,0Z"/>
  <path class="cls-100" d="M254.39,387.13c-13.9,0-27.8,0-41.7,0,0-2.84,0-5.68,0-8.52,13.91,0,27.81,0,41.72,0,0,2.84-.01,5.68-.02,8.52Z"/>
  <path class="cls-102" d="M411.07,368.06c0,4.6,0,9.19,0,13.79-.53,.49-1.19,.61-1.87,.62-3.49,.05-6.98,.05-10.46,0-.68,0-1.34-.14-1.87-.62,0-4.03,.04-8.06-.02-12.09-.02-1.32,.41-1.75,1.73-1.73,4.16,.07,8.33,.03,12.49,.03Z"/>
  <path class="cls-105" d="M396.87,381.85h14.2c0,2.98,0,5.95,0,8.93-3.77,0-7.55,0-11.32,0q-2.87,0-2.87,2.78c0,1.69,.02,3.37,0,5.06-.01,.65,.22,1.37-.39,1.9-.12-6.23,.05-12.44,.4-18.66Z"/>
  <path class="cls-2" d="M262.15,506.85c-.08-1.4-1.44-1.46-2.26-2-1.46-.98-3.09-1.73-5.05-2.8h335.37c-3.07,1.82-5.9,3.51-8.74,5.19H263.97c1.78,1.2,3.43,2.12,5.18,2.83,.44,.18,.67,.4,.7,.85-.6,.08-1.09-.23-1.62-.44-2.03-1.21-4.06-2.42-6.09-3.63Z"/>
  <path class="cls-111" d="M268.24,510.48c.62-.15,1.11,.16,1.62,.44,.29,.52,1.31,.28,1.23,1.18-.25-.02-.51-.04-.76-.07-.64-.47-1.25-1.01-2.07-1.16-.03-.13-.04-.26-.01-.39Z"/>
  <path class="cls-46" d="M412.37,307.57c-1.25-.32-2.51-.39-3.8-.39-65.29,.01-130.59,.01-195.88,.01,0-3.52,0-7.03,0-10.55,.58-.57,1.33-.61,2.08-.65,.68-.03,1.35-.02,2.03-.02,63.39,0,126.78,0,190.17,.01,1.39,0,2.86-.33,4.11,.65,.2,3.1-.4,6.22,.32,9.31,.06,.7,.7,1.05,.99,1.62Z"/>
  <path class="cls-50" d="M411.07,280.82v9.33c-.59,.55-1.33,.62-2.08,.65-.68,.03-1.35,.02-2.03,.02-63.39,0-126.78,0-190.16-.01-1.38,0-2.86,.35-4.1-.65,0-3.11,0-6.22,0-9.33,66.13,0,132.25,0,198.37,0Z"/>
  <path class="cls-48" d="M212.69,290.15h198.37c0,2.16,0,4.33,0,6.49-66.13,0-132.25,0-198.38,0,0-2.16,0-4.33,0-6.49Z"/>
</svg>