<?xml version="1.0" encoding="UTF-8"?><svg id="Layer_1" xmlns="http://www.w3.org/2000/svg" width="1632.19" height="158.74" viewBox="0 0 1632.19 158.74"><path d="M278.52,23.31c7.32-2.25,10.95,1.05,14.47,6.2,16.74,24.52,33.81,48.81,52.17,75.2V23.22h11.03V125.25c-6.78,2.49-10.8-.05-14.63-5.73-14.91-22.15-30.28-43.98-45.51-65.91-1.67-2.41-3.48-4.74-6.48-8.81V125.63c-3.93,.17-7.16,.32-11.05,.49V23.31Z" fill="#080808"/><path d="M182.54,22.04c29.2,.05,50.21,22.4,49.99,53.16-.22,30.01-21.75,52.37-50.26,52.18-29.02-.19-50.3-22.88-50.07-53.39,.22-30.08,21.46-52,50.35-51.94Zm.3,94c21.99-.09,38.33-17.73,38.41-41.46,.08-23.76-17.33-42.31-39.31-41.87-21.99,.45-38.34,18.29-38.35,41.85,0,24.21,16.42,41.58,39.24,41.48Z" fill="#0b0b0b"/><path d="M959.03,125.34c-10.11,2.77-15.73-.68-20.36-8.25-5.34-8.71-12.63-16.27-17.6-25.15-6.09-10.88-14.41-14.2-26.89-10.99v44.7c-4.06,.24-7.27,.43-11.27,.67V23.18h10.72v44.47c11.08,2.72,18.86,1.22,24.33-9.41,4.79-9.31,12.11-17.3,17.29-26.44,4.43-7.8,9.73-11.53,19.73-8.09-9.13,13.64-17.7,27.55-27.45,40.59-5.2,6.96-4.98,11.51,.4,18.26,10.77,13.52,20.42,27.94,31.1,42.78Z" fill="#171717"/><path d="M1422.66,23.12h9.89c0,24.67,1.22,48.94-.38,73.02-1.33,19.94-16.74,31.4-37.27,31.25-20.67-.15-35.84-11.57-37.13-31.49-1.56-24.04-.37-48.25-.37-72.83h9.97c0,10.08-.11,20.18,.03,30.27,.18,13.03-.43,26.19,1.11,39.07,1.83,15.2,12.15,23.49,26.41,23.64,14.31,.15,24.85-7.89,26.33-23.33,1.72-17.87,1.06-35.98,1.39-53.98,.09-4.95,.01-9.9,.01-15.62Z" fill="#0f0f0f"/><path d="M18.51,33.66c.19-4.18,.32-7.21,.49-10.91,14.7,0,28.97-.64,43.16,.19,13.01,.76,22.96,10.11,26.53,22.76,3.69,13.08-.74,26.58-11.59,34.93-2.17,1.67-4.56,3.03-7.3,4.84,7.35,13.09,14.61,26.02,22.26,39.65-7.76,2.13-13.24,1.64-16.86-6.34-3.45-7.61-8.69-14.42-11.93-22.1-3.5-8.28-8.96-10.87-17.43-9.82-4.9,.6-9.93,.11-15.83,.11v38.55h-10.98v-49.35c12.54,0,24.89,.4,37.2-.1,17.13-.7,26.91-15.81,20-30.47-4.01-8.51-11.3-11.95-20.44-11.94-12.34,0-24.68,0-37.27,0Z" fill="#0c0c0c"/><path d="M838.87,45.87c-2.7,1.46-5.41,2.91-8.07,4.35-24.53-21.03-46.64-22.79-62.73-5.09-15.81,17.39-14.61,45.5,2.61,61.35,16.59,15.28,40.17,12.4,59.5-7.66,2.79,1.39,5.75,2.86,8.72,4.34-9.84,18.73-32.78,28.27-54.26,22.83-23.59-5.98-39.21-26.41-39.28-51.35-.06-24.72,15.99-45.91,39.12-51.63,21.49-5.31,44.67,4.34,54.39,22.86Z" fill="#0d0d0d"/><path d="M661.55,41.11c-8.06,21.45-15.43,41.06-22.78,60.67-1.95,5.21-4.34,10.33-5.65,15.7-1.97,8.12-6.7,10.32-15.43,7.77,2-5.38,3.95-10.72,5.96-16.04,10.05-26.64,19.96-53.34,30.38-79.83,1.12-2.85,5.1-5.93,8.03-6.24,2.12-.22,5.85,3.53,6.91,6.27,12.2,31.44,24.03,63.02,36.26,95.35-6.79,2.12-11.67,3.3-14.79-5.6-8.94-25.51-18.71-50.74-28.89-78.04Z" fill="#0c0c0c"/><path d="M1480.13,125.64V23.16h11.07V114.96h51.11v10.68h-62.18Z" fill="#202020"/><path d="M563.96,22.97h11.24c0,10.14,0,20.29,0,30.44,0,14.92,.09,29.85-.03,44.77-.08,11.33-2.09,21.91-13.91,27.15-11.2,4.96-23.87,1.69-34.49-8.97,2.37-2.17,4.73-4.32,7.44-6.8,2.01,1.41,3.63,2.78,5.46,3.79,13.13,7.23,23.97,1.23,24.2-13.88,.34-22.38,.09-44.77,.09-67.16,0-3.03,0-6.05,0-9.35Z" fill="#060606"/><path d="M1098.73,124.61c5.64-15.18,11.15-30.18,16.77-45.14,5.99-15.94,12.58-31.67,17.94-47.82,2.75-8.28,6.93-10.96,15.71-8.01-7.86,20.83-15.7,41.65-23.58,62.45-4.17,11.01-8.79,21.87-12.49,33.03-2.48,7.47-6.72,8.5-14.35,5.48Z" fill="#0d0d0d"/><path d="M413.88,125.85h-9.86V23.21h9.86V125.85Z" fill="#0e0e0e"/><path d="M1188.53,22.85h9.85V125.45h-9.85V22.85Z" fill="#0d0d0d"/><path d="M1584.48,22.87h9.72V125.76h-9.72V22.87Z" fill="#0e0e0e"/><path d="M1272.97,50.52h10.52V125.8c-3.01,.16-6.46,.34-10.52,.55V50.52Z" fill="#262626"/><path d="M1060.45,23.42c9.26-2.49,13.5,.17,16.04,8.43,3.98,12.96,8.79,25.75,14.4,38.09,4.06,8.92,2.84,16.42-2.85,25.35-9.37-24.41-18.41-47.96-27.59-71.87Z" fill="#0f0f0f"/><path d="M1315.06,33.33h-74.37v-9.95h74.37v9.95Z" fill="#0e0e0e"/><path d="M182.83,116.04c-22.82,.1-39.25-17.27-39.24-41.48,0-23.56,16.36-41.4,38.35-41.85,21.97-.45,39.39,18.1,39.31,41.87-.08,23.74-16.42,41.37-38.41,41.46Z" fill="#fbfbfb"/></svg>