<?xml version="1.0" encoding="utf-8"?>
<!-- Generator: Adobe Illustrator 26.0.2, SVG Export Plug-In . SVG Version: 6.00 Build 0)  -->
<svg version="1.1" id="Layer_1" xmlns="http://www.w3.org/2000/svg" xmlns:xlink="http://www.w3.org/1999/xlink" x="0px" y="0px"
	 viewBox="0 0 2000 2000" enable-background="new 0 0 2000 2000" xml:space="preserve">
<g>
	<path fill="#FFFFFF" d="M1028.5,1094.1L904.1,966.2c-0.1,23.3-0.1,46.6,0,69.9c0.1,48.4-0.1,96.9,0,145.3c0.1,42.2,0,84.5,0,126.7
		c-45.2-0.4-90.4,0.8-135.5-0.5c-16.2-12-28.7-28.1-43.4-41.8c42-1.4,84.1,0.1,126.1-0.7c0.6-98.4-1.6-196.9,0.9-295.3
		c-201.8,0.6-403.6-0.2-605.5,0.4v125.8v5.3c0.1-1.8,0.1-3.5,0.2-5.3c159.6,0.6,319.2,0,478.9,0.3c-0.1,14.2-0.1,28.3,0.1,42.5
		c-112.5,0.1-225,0.6-337.5-0.3c-0.4,10.3-0.6,20.5-0.7,30.9c0.3,32.8,0.1,65.7,0.1,98.6c-0.1,35,0.1,70-0.1,105
		c0.2,3.3,0.5,10,0.7,13.3c42.1,22.7,83.7,46.3,125.6,69.3c0-23.8,0-47.6,0-71.4c0-39.7,0-79.4,0-119.1c14.2-0.1,28.3-0.1,42.5-0.3
		c39.5,38.7,78.3,78,117.4,117.1c18.4,16.3,33.5,37.3,53.8,50.9c100.7,1,201.3,0.1,302,0.4L1028.5,1094.1
		C1028.6,1094.2,1028.6,1094.2,1028.5,1094.1z"/>
	<path fill="#FFFFFF" d="M1633.6,722.9c-32.2,31.5-63.7,63.7-95.8,95.4c-50.1,50.4-100.5,100.6-150.9,150.9
		c-56.3,56.6-112.9,113-169.4,169.5c-0.5-64.1,0.6-128.2-0.7-192.3l-125.4-141.1c-0.5,22.6-0.2,45.2-0.2,67.8
		c0.1,50.4-0.1,100.8,0,151.3c0.1,36.7-0.1,73.3,0,110c0.1,44.6-0.1,89.1,0,133.7c0.1,38.9-0.1,77.7,0,116.6c0,15.8,0,31.6,0.1,47.4
		c30.8-29.6,60.3-60.5,90.9-90.3c46.2-46.8,93.4-92.7,139.1-139.8l1.3,0.1c55.2-56.9,111.9-112.4,167.9-168.6
		c37-37.1,73.8-74.2,111-110.9c74.9-74.3,148.2-150.3,224.4-223.2L1633.6,722.9z"/>
	<path fill="#FFFFFF" d="M976.3,874.5c-24.1-24.1-48.2-48.2-72.2-72.2c0,3.2,0,9.7,0,13c0,36.3,0.1,72.5-0.1,108.9
		c31.5,31.7,63.2,63.2,94.8,94.9c10.3,10.2,20.5,20.3,30.8,30.5c-0.1-8.4-0.1-16.8,0-25.2c0-32.1-0.1-64.3,0-96.4
		C1011.9,910.1,994,892.4,976.3,874.5z"/>
</g>
</svg>
