<?xml version="1.0" encoding="utf-8"?>
<!-- Generator: Adobe Illustrator 26.0.2, SVG Export Plug-In . SVG Version: 6.00 Build 0)  -->
<svg version="1.1" id="Layer_1" xmlns="http://www.w3.org/2000/svg" xmlns:xlink="http://www.w3.org/1999/xlink" x="0px" y="0px"
	 viewBox="0 0 2000 2000" enable-background="new 0 0 2000 2000" xml:space="preserve">
<g>
	<g>
		<path fill="#30689E" d="M994,1854.2c-105,0-200.3-25.1-276.3-54.8c-182.1-70.8-326-210.3-394.8-382.6
			c-63.5-158.8-60.3-329.6,9.5-493.9c35.7-84.1,91.5-164.7,165.9-239.5l469.3-472.3l88.3,87.7L586.5,771.1
			c-63.1,63.6-110.1,131-139.6,200.5c-57.4,135.4-60.2,269.6-8.5,399.1c56.1,140.5,174.4,254.5,324.5,312.9
			c180.9,70.3,347.2,61,494.1-28c100.7-61.1,179.8-157.2,222.7-270.4c65.2-172.2,82.8-430.7-203.9-684l82.4-93.3
			c357.9,316.1,302.6,650.3,237.9,821.3c-52.6,139.1-150.1,257.2-274.5,332.7C1209.4,1830,1097.1,1854.2,994,1854.2z"/>
	</g>
</g>
<g>
	<path fill="#4179AE" d="M974.2,1665.9c-3.9,0-7.9,0-11.9-0.2c-184.3-4.3-354.5-107.8-444.2-270.1c-58.1-105.2-69.7-224.8-33.6-346
		c25.6-86,75.4-166.4,148-238.8l470.3-470.3l88,88L720.4,898.8c-57.8,57.7-97,120.5-116.7,186.4c-26.7,89.7-18.9,173.9,23.3,250.3
		c68.4,123.7,198,202.7,338.2,205.9c131.9,3.6,248.3-59.2,317-171.1l4.4-7.3c7.4-12.3,161.8-285-133.8-530l83.3-89.2
		c380.1,315.1,159.7,679.2,157.4,682.9l-5.8,9.5C1299.1,1580.4,1145,1665.9,974.2,1665.9z"/>
</g>
<g>
	<path fill="#70A8DD" d="M976.5,1477.4c-53.2,0-108.5-14.5-161.4-43.1c-117.7-63.7-173.6-165.5-157.4-286.6
		c9.6-71.7,44.8-140.2,101.8-198.1l467.6-475.3l88.7,87.4L848.2,1037c-26.4,26.8-59.6,70.7-67.1,127.3c-9.4,70,20.3,121,93.3,160.6
		c29.8,16.1,88.8,40.5,149,20.9c27.7-8.9,51.9-24.5,72-46.6c58.5-64.3,66.1-163.7,17.9-236.2c-20.9-31.4-54.8-67.4-90.6-97
		l86.4-89.2c45.2,37.3,80.2,75.7,107.8,117.4c79.3,119.3,66.9,282.7-29.5,388.7c-34.9,38.4-77.3,65.8-125.9,81.4
		C1034.3,1473.1,1005.7,1477.4,976.5,1477.4z"/>
</g>
</svg>
